<?xml version="1.0" encoding="UTF-8" standalone="no"?>
<!-- Created with Inkscape (http://www.inkscape.org/) -->

<svg
   width="72"
   height="72"
   viewBox="0 0 19.050001 19.05"
   version="1.1"
   id="svg5"
   xml:space="preserve"
   inkscape:version="1.2.2 (b0a8486541, 2022-12-01)"
   sodipodi:docname="02d.svg"
   inkscape:export-filename="01d.png"
   inkscape:export-xdpi="96"
   inkscape:export-ydpi="96"
   xmlns:inkscape="http://www.inkscape.org/namespaces/inkscape"
   xmlns:sodipodi="http://sodipodi.sourceforge.net/DTD/sodipodi-0.dtd"
   xmlns="http://www.w3.org/2000/svg"
   xmlns:svg="http://www.w3.org/2000/svg"><sodipodi:namedview
     id="namedview7"
     pagecolor="#ffffff"
     bordercolor="#111111"
     borderopacity="1"
     inkscape:showpageshadow="0"
     inkscape:pageopacity="0"
     inkscape:pagecheckerboard="1"
     inkscape:deskcolor="#d1d1d1"
     inkscape:document-units="mm"
     showgrid="false"
     inkscape:zoom="4.8790368"
     inkscape:cx="31.256169"
     inkscape:cy="28.284271"
     inkscape:window-width="1858"
     inkscape:window-height="1066"
     inkscape:window-x="55"
     inkscape:window-y="7"
     inkscape:window-maximized="1"
     inkscape:current-layer="layer1" /><defs
     id="defs2" /><g
     inkscape:label="Layer 1"
     inkscape:groupmode="layer"
     id="layer1"><g
       id="g871"
       transform="matrix(1.1612903,0,0,1.1612903,-1.9316742e-8,0.61451575)"
       style="fill:#ce93d8;fill-opacity:1"><path
         id="circle759"
         style="fill:#ce93d8;fill-opacity:1;stroke-width:0.131658"
         d="M 12.013221,4.9330322 A 4.3908052,4.3908052 0 0 0 8.3276571,6.9427286 C 8.9460354,7.4304145 9.3756833,8.14819 9.4144125,8.9932495 10.958409,8.5257222 12.458945,8.9686115 12.459188,11.063924 c 1.095259,0.02331 2.000719,0.780601 2.32544,1.663981 A 4.3908052,4.3908052 0 0 0 16.404167,9.3239786 4.3908052,4.3908052 0 0 0 12.013221,4.9330322 Z" /><path
         style="fill:#ce93d8;fill-opacity:1;stroke:none;stroke-width:0.121786"
         d="m 2.9177391,10.375026 c -3.54013452,0.152391 -4.0899981,5.194901 -0.3653578,5.469406 2.4000204,0 4.8098145,0.01096 7.1853698,0.01096 1.0423659,0 2.2389539,0.112471 3.4100069,-0.201312 2.385177,-1.076223 0.956506,-4.014917 -1.21786,-4.061196 C 11.929655,9.4975691 10.429248,9.0549953 8.8852502,9.522523 8.7876997,7.3939975 6.2120495,6.070257 4.3791708,7.2079326 3.2245058,7.9246429 2.9185796,9.1067704 2.9177391,10.375026 Z"
         id="path1565"
         sodipodi:nodetypes="scsccccss" /></g></g></svg>
