<?xml version="1.0" encoding="UTF-8" standalone="no"?>
<!-- Created with Inkscape (http://www.inkscape.org/) -->

<svg
   width="72"
   height="72"
   viewBox="0 0 19.050002 19.05"
   version="1.1"
   id="svg5"
   xml:space="preserve"
   inkscape:version="1.2.2 (b0a8486541, 2022-12-01)"
   sodipodi:docname="04d.svg"
   inkscape:export-filename="01d.png"
   inkscape:export-xdpi="96"
   inkscape:export-ydpi="96"
   xmlns:inkscape="http://www.inkscape.org/namespaces/inkscape"
   xmlns:sodipodi="http://sodipodi.sourceforge.net/DTD/sodipodi-0.dtd"
   xmlns="http://www.w3.org/2000/svg"
   xmlns:svg="http://www.w3.org/2000/svg"><sodipodi:namedview
     id="namedview7"
     pagecolor="#ffffff"
     bordercolor="#111111"
     borderopacity="1"
     inkscape:showpageshadow="0"
     inkscape:pageopacity="0"
     inkscape:pagecheckerboard="1"
     inkscape:deskcolor="#d1d1d1"
     inkscape:document-units="mm"
     showgrid="false"
     inkscape:zoom="4.8790368"
     inkscape:cx="30.641294"
     inkscape:cy="29.923939"
     inkscape:window-width="1858"
     inkscape:window-height="1066"
     inkscape:window-x="55"
     inkscape:window-y="7"
     inkscape:window-maximized="1"
     inkscape:current-layer="layer1" /><defs
     id="defs2" /><g
     inkscape:label="Layer 1"
     inkscape:groupmode="layer"
     id="layer1"><g
       id="g1191"
       transform="matrix(1.1612969,0,0,1.1612969,5.1690464e-7,0.61441158)"
       style="fill:#ce93d8;fill-opacity:1"><path
         id="path2690"
         style="fill:#ce93d8;fill-opacity:1;stroke:none;stroke-width:0.0983165"
         d="M 9.5084636,5.3407592 C 9.1042216,5.3428798 8.6970561,5.448598 8.3271403,5.6782063 7.7464618,6.0386383 7.431551,6.5445409 7.2765585,7.1225626 c 0.8676673,0.4148113 1.5315984,1.2420741 1.578715,2.2701457 1.4468745,-0.4381185 2.8533445,-0.023062 2.8535725,1.9404497 0.93499,0.0199 1.72223,0.610697 2.085144,1.34152 0.526032,-0.0012 1.072206,-0.0337 1.611788,-0.178283 C 17.331306,11.627571 16.177717,9.2554024 14.422376,9.218042 14.422179,7.526565 13.211098,7.1693958 11.964645,7.5468261 11.905582,6.2580742 10.72119,5.3343975 9.5084636,5.3407592 Z" /><path
         style="fill:#ce93d8;fill-opacity:1;stroke:none;stroke-width:0.114125"
         d="m 2.7342053,10.72099 c -3.31745026,0.142805 -3.8327259,4.868127 -0.3423758,5.125365 2.2490522,0 4.5072635,0.01027 6.7333897,0.01027 0.9767978,0 2.0981168,0.105396 3.1955078,-0.188649 2.235143,-1.008525 0.896339,-3.762367 -1.141253,-3.805735 C 11.179246,9.8987272 9.7732193,9.4839925 8.3263429,9.9221114 8.2349287,7.9274761 5.821294,6.6870027 4.1037088,7.7531153 3.0216754,8.4247425 2.7349929,9.5325109 2.7342053,10.720989 Z"
         id="path2692"
         sodipodi:nodetypes="scsccccss" /></g></g></svg>
