<?xml version="1.0" encoding="UTF-8" standalone="no"?>
<!-- Created with Inkscape (http://www.inkscape.org/) -->

<svg
   width="72"
   height="72"
   viewBox="0 0 19.050001 19.05"
   version="1.1"
   id="svg5"
   xml:space="preserve"
   inkscape:version="1.2.2 (b0a8486541, 2022-12-01)"
   sodipodi:docname="10d.svg"
   inkscape:export-filename="01d.png"
   inkscape:export-xdpi="96"
   inkscape:export-ydpi="96"
   xmlns:inkscape="http://www.inkscape.org/namespaces/inkscape"
   xmlns:sodipodi="http://sodipodi.sourceforge.net/DTD/sodipodi-0.dtd"
   xmlns="http://www.w3.org/2000/svg"
   xmlns:svg="http://www.w3.org/2000/svg"><sodipodi:namedview
     id="namedview7"
     pagecolor="#ffffff"
     bordercolor="#111111"
     borderopacity="1"
     inkscape:showpageshadow="0"
     inkscape:pageopacity="0"
     inkscape:pagecheckerboard="1"
     inkscape:deskcolor="#d1d1d1"
     inkscape:document-units="mm"
     showgrid="false"
     inkscape:zoom="3.45"
     inkscape:cx="30.57971"
     inkscape:cy="29.855072"
     inkscape:window-width="1858"
     inkscape:window-height="1040"
     inkscape:window-x="55"
     inkscape:window-y="33"
     inkscape:window-maximized="1"
     inkscape:current-layer="layer1" /><defs
     id="defs2" /><g
     inkscape:label="Layer 1"
     inkscape:groupmode="layer"
     id="layer1"><g
       id="g244"
       transform="scale(1.2)"><path
         style="fill:#484848;fill-opacity:1;stroke-width:0.158241"
         d="m 7.7018813,15.716132 c -0.1681678,-0.2721 0.2698848,-1.292038 0.5549165,-1.292038 0.4146311,0 0.5020324,0.255953 0.2982512,0.873419 -0.1735936,0.525994 -0.6441218,0.756864 -0.8531677,0.418619 z M 5.1559085,15.376811 c -0.1358984,-0.219889 0.2032457,-0.794476 0.4689305,-0.794476 0.3076974,0 0.4386822,0.259829 0.319804,0.634381 -0.1036739,0.326647 -0.6209134,0.431635 -0.7887345,0.160095 z M 3.0819458,14.046963 c -0.1241492,-0.323527 0.356642,-1.36352 0.6303587,-1.36352 0.3850472,0 0.4653533,0.311388 0.249209,0.966311 -0.2083686,0.631363 -0.7038506,0.85512 -0.8795677,0.397209 z M 5.8788366,13.80243 c -0.3481649,-0.220371 0.1182244,-1.339301 0.5864261,-1.406915 0.403793,-0.05831 0.4559482,0.253706 0.1764345,1.05552 -0.1783721,0.511679 -0.3700989,0.599993 -0.7628606,0.351395 z m 3.0356885,-1.153278 c -0.2175735,-0.26979 0.031711,-0.915156 0.3534962,-0.915156 0.3197941,0 0.4903178,0.447646 0.2909325,0.763735 -0.2129924,0.337664 -0.4494298,0.393221 -0.6444287,0.151421 z M 4.1824088,11.338039 c -0.1643153,-0.428198 0.084053,-1.028212 0.425616,-1.028212 0.4402711,0 0.5519299,0.400261 0.2431312,0.871547 -0.2934366,0.447842 -0.5352723,0.504495 -0.6687472,0.156665 z"
         id="path1679" /><g
         id="g1771"
         transform="matrix(0.96774192,0,0,0.96774192,0,0.13552561)"
         style="fill:#ce93d8;fill-opacity:1"><path
           id="circle2720"
           style="fill:#ce93d8;fill-opacity:1;stroke-width:0.131658"
           d="M 12.013221,-0.14004313 A 4.3908052,4.3908052 0 0 0 8.3276571,1.8691365 C 8.9461706,2.356826 9.3756781,3.075 9.4144125,3.9201741 10.958409,3.4526469 12.458945,3.8950192 12.459188,5.990332 c 1.095215,0.02331 2.000685,0.7806469 2.32544,1.6639811 a 4.3908052,4.3908052 0 0 0 1.619539,-3.4039266 4.3908052,4.3908052 0 0 0 -4.390946,-4.39042963 z" /><path
           style="fill:#ce93d8;fill-opacity:1;stroke:none;stroke-width:0.121786"
           d="m 2.9177391,5.3017052 c -3.54013452,0.1523907 -4.0899981,5.1949008 -0.3653578,5.4694058 2.4000204,0 4.8098145,0.01096 7.1853698,0.01096 1.0423659,0 2.2389539,0.112471 3.4100069,-0.201312 C 15.532935,9.504536 14.104264,6.5658418 11.929898,6.519563 11.929655,4.4242481 10.429248,3.9816743 8.8852502,4.449202 8.7876997,2.3206765 6.2120495,0.99693602 4.3791708,2.1346116 3.2245058,2.8513219 2.9185796,4.0334494 2.9177391,5.3017038 Z"
           id="path2722"
           sodipodi:nodetypes="scsccccss" /></g><path
         style="fill:#ce93d8;fill-opacity:1;stroke-width:0.158241"
         d="m 7.7018813,15.716132 c -0.1681678,-0.2721 0.2698848,-1.292038 0.5549165,-1.292038 0.4146311,0 0.5020324,0.255953 0.2982512,0.873419 -0.1735936,0.525994 -0.6441218,0.756864 -0.8531677,0.418619 z M 5.1559085,15.376811 c -0.1358984,-0.219889 0.2032457,-0.794476 0.4689305,-0.794476 0.3076974,0 0.4386822,0.259829 0.319804,0.634381 -0.1036739,0.326647 -0.6209134,0.431635 -0.7887345,0.160095 z M 3.0819458,14.046963 c -0.1241492,-0.323527 0.356642,-1.36352 0.6303587,-1.36352 0.3850472,0 0.4653533,0.311388 0.249209,0.966311 -0.2083686,0.631363 -0.7038506,0.85512 -0.8795677,0.397209 z M 5.8788366,13.80243 c -0.3481649,-0.220371 0.1742271,-1.598587 0.6424288,-1.6662 0.403793,-0.05831 0.3999455,0.512991 0.1204318,1.314805 -0.1783721,0.511679 -0.3700989,0.599993 -0.7628606,0.351395 z m 3.0356885,-1.153278 c -0.2175735,-0.26979 0.031711,-0.915156 0.3534962,-0.915156 0.3197941,0 0.4903178,0.447646 0.2909325,0.763735 -0.2129924,0.337664 -0.4494298,0.393221 -0.6444287,0.151421 z M 4.1824088,11.338039 c -0.1643153,-0.428198 0.084053,-1.028212 0.425616,-1.028212 0.4402711,0 0.5519299,0.400261 0.2431312,0.871547 -0.2934366,0.447842 -0.5352723,0.504495 -0.6687472,0.156665 z"
         id="path2726"
         sodipodi:nodetypes="ssssssssssssssssssssssss" /></g></g></svg>
