<?xml version="1.0" encoding="UTF-8" standalone="no"?>
<!-- Created with Inkscape (http://www.inkscape.org/) -->

<svg
   width="72"
   height="72"
   viewBox="0 0 19.050001 19.05"
   version="1.1"
   id="svg5"
   xml:space="preserve"
   inkscape:version="1.2.2 (b0a8486541, 2022-12-01)"
   sodipodi:docname="10n.svg"
   inkscape:export-filename="01d.png"
   inkscape:export-xdpi="96"
   inkscape:export-ydpi="96"
   xmlns:inkscape="http://www.inkscape.org/namespaces/inkscape"
   xmlns:sodipodi="http://sodipodi.sourceforge.net/DTD/sodipodi-0.dtd"
   xmlns="http://www.w3.org/2000/svg"
   xmlns:svg="http://www.w3.org/2000/svg"><sodipodi:namedview
     id="namedview7"
     pagecolor="#ffffff"
     bordercolor="#111111"
     borderopacity="1"
     inkscape:showpageshadow="0"
     inkscape:pageopacity="0"
     inkscape:pagecheckerboard="1"
     inkscape:deskcolor="#d1d1d1"
     inkscape:document-units="mm"
     showgrid="false"
     inkscape:zoom="6.9"
     inkscape:cx="30.942029"
     inkscape:cy="29.855072"
     inkscape:window-width="1858"
     inkscape:window-height="1040"
     inkscape:window-x="55"
     inkscape:window-y="33"
     inkscape:window-maximized="1"
     inkscape:current-layer="layer1" /><defs
     id="defs2" /><g
     inkscape:label="Layer 1"
     inkscape:groupmode="layer"
     id="layer1"><g
       id="g260"
       transform="scale(1.2)"><g
         id="g1677"
         transform="matrix(0.96774216,0,0,0.96774216,0,0.51209955)"
         style="fill:#ce93d8;fill-opacity:1;stroke:none"><path
           id="path611"
           style="fill:#ce93d8;fill-opacity:1;stroke:none;stroke-width:0.0303061"
           d="m 11.826669,-0.52916667 c -0.03191,2.7354e-4 -0.157904,0.0157464 -0.304891,0.0377238 C 10.462509,-0.33305923 9.6362306,0.08911565 8.9214193,0.83715823 8.5329514,1.2436872 8.2330828,1.7096378 8.0258667,2.2267374 8.8028263,2.7045035 9.3696567,3.5110178 9.4144125,4.4875813 10.958409,4.0200541 12.458945,4.4629433 12.459188,6.558256 13.230855,6.57468 13.907994,6.9554335 14.35468,7.487915 14.595564,7.3359222 14.823274,7.1594961 15.034225,6.9587483 15.792223,6.2374191 16.266582,5.2758576 16.382463,4.2266154 l 0.0217,-0.1943034 -0.133325,0.018604 C 15.511234,4.1578874 15.073832,4.143864 14.516427,3.9945882 13.118543,3.6202304 12.053266,2.4523447 11.803414,1.019576 c -0.05426,-0.31345537 -0.05469,-0.89492272 -10e-4,-1.26658935 0.02167,-0.15001505 0.03634,-0.27627979 0.03204,-0.28111979 -4.99e-4,-6.0575e-4 -0.0032,-0.001073 -0.0078,-0.001034 z" /><path
           style="fill:#ce93d8;fill-opacity:1;stroke:none;stroke-width:0.121786"
           d="m 2.917739,5.8693524 c -3.540134,0.152391 -4.089998,5.1949006 -0.365358,5.4694056 2.400021,0 4.809815,0.01096 7.18537,0.01096 1.042366,0 2.238954,0.112471 3.410007,-0.201312 2.385177,-1.076223 0.956506,-4.0149166 -1.21786,-4.0611956 C 11.929655,4.9918956 10.429248,4.5493218 8.88525,5.0168495 8.7877,2.888324 6.212049,1.5645835 4.379171,2.7022591 3.224506,3.4189694 2.91858,4.6010969 2.917739,5.8693524 Z"
           id="path2698"
           sodipodi:nodetypes="scsccccss" /></g><path
         style="fill:#ce93d8;fill-opacity:1;stroke-width:0.158241"
         d="m 7.7018813,15.716132 c -0.1681678,-0.2721 0.2698848,-1.292038 0.5549165,-1.292038 0.4146311,0 0.5020324,0.255953 0.2982512,0.873419 -0.1735936,0.525994 -0.6441218,0.756864 -0.8531677,0.418619 z M 5.1559085,15.376811 c -0.1358984,-0.219889 0.2032457,-0.794476 0.4689305,-0.794476 0.3076974,0 0.4386822,0.259829 0.319804,0.634381 -0.1036739,0.326647 -0.6209134,0.431635 -0.7887345,0.160095 z M 3.0819458,14.046963 c -0.1241492,-0.323527 0.356642,-1.36352 0.6303587,-1.36352 0.3850472,0 0.4653533,0.311388 0.249209,0.966311 -0.2083686,0.631363 -0.7038506,0.85512 -0.8795677,0.397209 z M 5.8788366,13.80243 c -0.3481649,-0.220371 0.1182244,-1.339301 0.5864261,-1.406915 0.403793,-0.05831 0.4559482,0.253706 0.1764345,1.05552 -0.1783721,0.511679 -0.3700989,0.599993 -0.7628606,0.351395 z m 3.0356885,-1.153278 c -0.2175735,-0.26979 0.031711,-0.915156 0.3534962,-0.915156 0.3197941,0 0.4903178,0.447646 0.2909325,0.763735 -0.2129924,0.337664 -0.4494298,0.393221 -0.6444287,0.151421 z M 4.1824088,11.338039 c -0.1643153,-0.428198 0.084053,-1.028212 0.425616,-1.028212 0.4402711,0 0.5519299,0.400261 0.2431312,0.871547 -0.2934366,0.447842 -0.5352723,0.504495 -0.6687472,0.156665 z"
         id="path1679" /></g></g></svg>
