<?xml version="1.0" encoding="UTF-8" standalone="no"?>
<!-- Created with Inkscape (http://www.inkscape.org/) -->

<svg
   width="60"
   height="60"
   viewBox="0 0 15.875001 15.875"
   version="1.1"
   id="svg5"
   xml:space="preserve"
   inkscape:version="1.2.2 (b0a8486541, 2022-12-01)"
   sodipodi:docname="13d.svg"
   inkscape:export-filename="01d.png"
   inkscape:export-xdpi="96"
   inkscape:export-ydpi="96"
   xmlns:inkscape="http://www.inkscape.org/namespaces/inkscape"
   xmlns:sodipodi="http://sodipodi.sourceforge.net/DTD/sodipodi-0.dtd"
   xmlns="http://www.w3.org/2000/svg"
   xmlns:svg="http://www.w3.org/2000/svg"><sodipodi:namedview
     id="namedview7"
     pagecolor="#ffffff"
     bordercolor="#111111"
     borderopacity="1"
     inkscape:showpageshadow="0"
     inkscape:pageopacity="0"
     inkscape:pagecheckerboard="1"
     inkscape:deskcolor="#d1d1d1"
     inkscape:document-units="mm"
     showgrid="false"
     inkscape:zoom="6.9"
     inkscape:cx="45.144928"
     inkscape:cy="40.144928"
     inkscape:window-width="1858"
     inkscape:window-height="1040"
     inkscape:window-x="55"
     inkscape:window-y="33"
     inkscape:window-maximized="1"
     inkscape:current-layer="layer1" /><defs
     id="defs2" /><g
     inkscape:label="Layer 1"
     inkscape:groupmode="layer"
     id="layer1"><g
       id="g2716"
       transform="matrix(0.67680441,0,0,0.67680441,-26.257799,-4.1802977)"
       style="fill:#ce93d8;fill-opacity:1"><path
         style="fill:#ce93d8;fill-opacity:1;stroke-width:0.264583"
         d="m 52.019366,29.314828 c -0.174625,-0.174625 -0.3175,-0.889 -0.3175,-1.5875 0,-0.6985 -0.09679,-1.27 -0.215082,-1.27 -0.118295,0 -0.561853,0.36195 -0.985685,0.804336 -0.862903,0.900676 -1.797877,0.960024 -1.917364,0.121705 -0.05047,-0.354131 0.452747,-1.051528 1.521354,-2.108385 1.283938,-1.269817 1.596777,-1.743348 1.596777,-2.416966 0,-0.846169 -0.835932,-1.692357 -1.671847,-1.692357 -0.813878,0 -1.643906,1.212387 -2.134817,3.118236 -0.529784,2.05676 -1.147907,2.766118 -1.763747,2.024076 -0.25725,-0.309967 -0.268646,-0.689771 -0.04944,-1.647695 0.156677,-0.684684 0.253189,-1.276557 0.21447,-1.315276 -0.03872,-0.03872 -0.627452,0.240945 -1.308297,0.621477 -1.00023,0.559038 -1.312745,0.629759 -1.627735,0.36834 -0.661741,-0.549196 -0.439911,-1.020353 0.861889,-1.830613 0.829675,-0.516403 1.11961,-0.822028 0.859896,-0.90643 -0.215506,-0.07004 -0.838314,-0.264679 -1.384017,-0.432539 -0.772984,-0.23777 -0.992187,-0.440547 -0.992187,-0.917829 0,-0.899165 0.483341,-0.952928 2.871337,-0.319381 2.030283,0.538644 2.189976,0.545793 2.880207,0.128966 0.523274,-0.316002 0.752976,-0.691311 0.809036,-1.321885 0.06581,-0.740222 -0.04981,-0.956261 -0.725312,-1.355291 -0.779355,-0.460377 -0.867502,-0.457457 -2.921523,0.09678 -2.350286,0.634175 -2.994156,0.556752 -2.866156,-0.344647 0.06482,-0.456472 0.39525,-0.695592 1.407619,-1.018641 l 1.322917,-0.422146 -0.926042,-0.569053 c -0.509323,-0.312979 -1.0026,-0.569498 -1.096172,-0.570042 -0.279407,-0.0016 -0.486031,-0.765263 -0.322425,-1.191614 0.206264,-0.537515 0.709837,-0.499251 1.983944,0.15075 0.590388,0.301193 1.11255,0.508506 1.16036,0.460696 0.04781,-0.04781 -0.04299,-0.573672 -0.201781,-1.16858 -0.361717,-1.355175 -0.134776,-2.02172 0.649902,-1.908819 0.596064,0.08576 0.640755,0.190044 1.510395,3.524287 0.1934,0.741505 0.514927,1.193261 1.074031,1.509048 0.751696,0.424565 0.843953,0.424565 1.590073,0 0.644355,-0.366657 0.79239,-0.624966 0.79375,-1.385039 0.0014,-0.792704 -0.240358,-1.173694 -1.595104,-2.513542 -1.064631,-1.052923 -1.571642,-1.754668 -1.521354,-2.1056812 0.123149,-0.8596 0.895003,-0.758966 2.027717,0.2643732 l 1.062911,0.960276 0.0799,-1.5397177 c 0.07497,-1.4446708 0.12073,-1.5397178 0.741356,-1.5397178 0.621713,0 0.666298,0.093797 0.741993,1.5610025 l 0.08053,1.561003 1.016225,-0.992318 c 0.770212,-0.7520926 1.15104,-0.9495299 1.573114,-0.815569 0.917729,0.2912758 0.643274,0.99821 -1.030613,2.654632 -1.349756,1.335671 -1.5875,1.712222 -1.5875,2.514359 0,0.761293 0.148717,1.031272 0.77034,1.398474 0.725604,0.428624 0.815819,0.428949 1.553469,0.0056 0.661665,-0.379744 0.880743,-0.800552 1.412473,-2.713109 0.533202,-1.917843 0.720469,-2.276594 1.225839,-2.348357 0.787093,-0.111768 0.990057,0.482288 0.638281,1.868182 -0.154943,0.610424 -0.233344,1.15823 -0.174229,1.217346 0.05912,0.05912 0.536091,-0.145402 1.059945,-0.454483 1.130303,-0.666895 1.536867,-0.699698 1.984669,-0.160129 0.412623,0.49718 -0.161658,1.232113 -1.346163,1.722752 -0.426043,0.176473 -0.774623,0.404573 -0.774623,0.506891 0,0.102317 0.565546,0.361148 1.25677,0.575179 0.944251,0.292378 1.277835,0.534502 1.341475,0.973677 0.129871,0.896238 -0.567097,0.978839 -2.889322,0.342424 -2.036945,-0.558233 -2.128136,-0.561503 -2.902489,-0.104081 -0.671246,0.396515 -0.786914,0.613494 -0.721183,1.352851 0.05571,0.626626 0.285684,1.005824 0.797399,1.314823 0.675386,0.407832 0.852281,0.399167 2.909488,-0.142539 1.938202,-0.510368 2.235665,-0.531489 2.583698,-0.183454 0.550344,0.550344 0.07235,1.225241 -1.074708,1.517407 -1.400678,0.356769 -1.457823,0.627372 -0.261385,1.23775 1.282282,0.654169 1.584577,1.202722 0.990296,1.797002 -0.388371,0.388372 -0.537702,0.361453 -1.796987,-0.323934 l -1.373415,-0.747507 0.183603,0.634148 c 0.506648,1.749907 0.497472,2.297925 -0.04333,2.587353 -0.731161,0.391303 -0.992717,0.01479 -1.713773,-2.466927 -0.468635,-1.612951 -0.747564,-2.135016 -1.326375,-2.482544 -0.662945,-0.398041 -0.801923,-0.401531 -1.455208,-0.03656 -0.523039,0.292206 -0.74594,0.649224 -0.808096,1.294313 -0.07569,0.785534 0.107151,1.085522 1.547117,2.538402 1.079299,1.088977 1.600869,1.815777 1.538335,2.143646 -0.153464,0.804624 -1.083366,0.730075 -1.931146,-0.154818 -0.423831,-0.442386 -0.867389,-0.804336 -0.985684,-0.804336 -0.118295,0 -0.215083,0.5715 -0.215083,1.27 0,1.125161 -0.324932,1.905 -0.79375,1.905 -0.08731,0 -0.301625,-0.142875 -0.47625,-0.3175 z m 1.28314,-9.346587 c 0.620334,-0.320786 0.780266,-0.578831 0.778938,-1.256771 -0.0013,-0.675282 -0.171654,-0.949848 -0.81716,-1.317252 -0.772459,-0.439659 -0.856136,-0.44014 -1.585828,-0.0091 -0.98935,0.584424 -1.080696,1.912005 -0.175027,2.543769 0.754298,0.526171 0.853482,0.528341 1.799077,0.03935 z"
         id="path2714" /></g></g></svg>
