<?xml version="1.0" encoding="UTF-8" standalone="no"?>
<!-- Created with Inkscape (http://www.inkscape.org/) -->

<svg
   width="60"
   height="60"
   viewBox="0 0 15.875001 15.875"
   version="1.1"
   id="svg5"
   xml:space="preserve"
   inkscape:version="1.2.2 (b0a8486541, 2022-12-01)"
   sodipodi:docname="50d.svg"
   inkscape:export-filename="01d.png"
   inkscape:export-xdpi="96"
   inkscape:export-ydpi="96"
   xmlns:inkscape="http://www.inkscape.org/namespaces/inkscape"
   xmlns:sodipodi="http://sodipodi.sourceforge.net/DTD/sodipodi-0.dtd"
   xmlns="http://www.w3.org/2000/svg"
   xmlns:svg="http://www.w3.org/2000/svg"><sodipodi:namedview
     id="namedview7"
     pagecolor="#ffffff"
     bordercolor="#111111"
     borderopacity="1"
     inkscape:showpageshadow="0"
     inkscape:pageopacity="0"
     inkscape:pagecheckerboard="1"
     inkscape:deskcolor="#d1d1d1"
     inkscape:document-units="mm"
     showgrid="false"
     inkscape:zoom="6.9"
     inkscape:cx="45"
     inkscape:cy="40.144928"
     inkscape:window-width="1858"
     inkscape:window-height="1040"
     inkscape:window-x="55"
     inkscape:window-y="33"
     inkscape:window-maximized="1"
     inkscape:current-layer="layer1" /><defs
     id="defs2" /><g
     inkscape:label="Layer 1"
     inkscape:groupmode="layer"
     id="layer1"><path
       style="fill:#ce93d8;stroke:none;stroke-width:0.149354;fill-opacity:1"
       d="m 4.5240775,4.9926009 h 5.2273983 c -0.203869,-1.2216433 -5.0235301,-1.2216433 -5.2273983,0 M 1.0384484,6.3380584 c -0.69491571,0.5831685 1.1994334,0.596132 1.3946697,0.5961472 h 5.824815 c 0.4788297,0 1.9165139,0.2394594 2.2140279,-0.2307223 C 10.887016,6.047803 8.8145758,6.1874343 8.5566415,6.1874343 H 3.0305348 c -0.5089393,0 -1.5759557,-0.1985962 -1.9920864,0.1506241 m 3.0375664,1.9403352 c 0.4628934,0.839446 1.5466824,0.5974173 2.3896674,0.5974173 h 6.8702948 c 0.868943,0 2.354869,0.3571057 2.539023,-0.7467712 H 8.1085789 L 4.0760148,8.2783936 M 0.14232249,10.071839 C -0.59690617,10.692256 1.7738086,10.66806 1.9850554,10.66806 h 6.8702944 c 0.538273,0 2.3359012,0.284819 2.6620912,-0.230752 C 11.940859,9.7683503 9.4475388,9.9212893 9.1540588,9.9212893 H 2.5824721 c -0.5943701,0 -1.96025931,-0.25211 -2.44014961,0.1505497 m 2.41791111,1.79225 c -0.7162286,0.646255 1.6026451,0.596222 1.8144893,0.596222 h 6.8702951 c 0.538273,0 2.335901,0.284819 2.662091,-0.230752 0.423418,-0.668958 -2.069902,-0.516018 -2.363382,-0.516018 H 4.9721401 c -0.569742,0 -1.9636795,-0.253754 -2.4119065,0.150548 m 1.7640078,1.792252 c -0.5935636,0.498244 0.7336129,0.594578 0.9466067,0.596072 1.5431579,0.01056 3.086704,1.49e-4 4.6299817,1.49e-4 0.3938472,0 1.3646492,0.167426 1.6166112,-0.230753 0.388768,-0.614144 -1.233966,-0.516018 -1.467257,-0.516018 H 5.8682657 c -0.419626,0 -1.1966717,-0.140842 -1.5440243,0.15055 z"
       id="path2718" /></g></svg>
