<?xml version="1.0" encoding="UTF-8" standalone="no"?>
<!-- Created with Inkscape (http://www.inkscape.org/) -->

<svg
   width="60"
   height="60"
   viewBox="0 0 15.875001 15.875"
   version="1.1"
   id="svg5"
   xml:space="preserve"
   inkscape:version="1.2.2 (b0a8486541, 2022-12-01)"
   sodipodi:docname="cloudy.svg"
   xmlns:inkscape="http://www.inkscape.org/namespaces/inkscape"
   xmlns:sodipodi="http://sodipodi.sourceforge.net/DTD/sodipodi-0.dtd"
   xmlns="http://www.w3.org/2000/svg"
   xmlns:svg="http://www.w3.org/2000/svg"><sodipodi:namedview
     id="namedview7"
     pagecolor="#ffffff"
     bordercolor="#111111"
     borderopacity="1"
     inkscape:showpageshadow="0"
     inkscape:pageopacity="0"
     inkscape:pagecheckerboard="1"
     inkscape:deskcolor="#d1d1d1"
     inkscape:document-units="mm"
     showgrid="false"
     inkscape:zoom="1.5500842"
     inkscape:cx="-58.706488"
     inkscape:cy="105.8007"
     inkscape:window-width="1858"
     inkscape:window-height="1066"
     inkscape:window-x="55"
     inkscape:window-y="7"
     inkscape:window-maximized="1"
     inkscape:current-layer="layer1" /><defs
     id="defs2" /><g
     inkscape:label="Layer 1"
     inkscape:groupmode="layer"
     id="layer1"><path
       style="fill:#ce93d8;fill-opacity:1;stroke-width:0.0310463"
       d="m 2.755973,15.853628 c -1.2649,-0.125291 -2.34083,-1.049946 -2.65708,-2.283505 -0.27532,-1.073901 0.0323,-2.176716 0.82579,-2.960941 0.23791,-0.235125 0.60834,-0.48925 0.8838,-0.606324 l 0.19378,-0.082359 0.0523,-0.268822 c 0.15249,-0.784622 0.72891,-1.440228 1.49343,-1.698602 0.5289,-0.178742 1.1582,-0.130779 1.6863,0.128525 0.12507,0.06142 0.23101,0.10689 0.23542,0.101056 0.004,-0.0058 0.0615,-0.101418 0.12698,-0.212409 0.59923,-1.016438 1.51703,-1.693852 2.69811,-1.99142 0.36457,-0.09185 1.17455,-0.114675 1.58525,-0.04467 0.77642,0.132346 1.51476,0.482624 2.08228,0.987869 0.89347,0.795417 1.40224,1.878362 1.41412,3.010019 l 0.003,0.2959085 0.23789,0.04687 c 1.04323,0.205527 1.90247,1.021495 2.18289,2.072952 0.0934,0.350063 0.10027,0.953587 0.0151,1.31713 -0.24623,1.050723 -1.03451,1.850864 -2.10337,2.134999 l -0.26059,0.06927 -5.21577,0.0053 c -2.86868,0.0029 -5.33453,-0.0065 -5.47967,-0.02084 z"
       id="path305" /></g></svg>
