<?xml version="1.0" encoding="UTF-8" standalone="no"?>
<!-- Created with Inkscape (http://www.inkscape.org/) -->

<svg
   width="60"
   height="60"
   viewBox="0 0 15.875001 15.875"
   version="1.1"
   id="svg5"
   xml:space="preserve"
   inkscape:version="1.2.2 (b0a8486541, 2022-12-01)"
   sodipodi:docname="haze.svg"
   xmlns:inkscape="http://www.inkscape.org/namespaces/inkscape"
   xmlns:sodipodi="http://sodipodi.sourceforge.net/DTD/sodipodi-0.dtd"
   xmlns="http://www.w3.org/2000/svg"
   xmlns:svg="http://www.w3.org/2000/svg"><sodipodi:namedview
     id="namedview7"
     pagecolor="#ffffff"
     bordercolor="#111111"
     borderopacity="1"
     inkscape:showpageshadow="0"
     inkscape:pageopacity="0"
     inkscape:pagecheckerboard="1"
     inkscape:deskcolor="#d1d1d1"
     inkscape:document-units="mm"
     showgrid="false"
     inkscape:zoom="1.5500842"
     inkscape:cx="-105.15558"
     inkscape:cy="105.8007"
     inkscape:window-width="1858"
     inkscape:window-height="1040"
     inkscape:window-x="55"
     inkscape:window-y="33"
     inkscape:window-maximized="1"
     inkscape:current-layer="layer1" /><defs
     id="defs2" /><g
     inkscape:label="Layer 1"
     inkscape:groupmode="layer"
     id="layer1"><path
       style="fill:#ce93d8;fill-opacity:1;stroke-width:0.0369188"
       d="m 7.6818392,15.770534 -0.10791,-0.107917 v -1.29784 -1.297841 l 0.10791,-0.107916 c 0.17159,-0.171586 0.4685,-0.129437 0.57785,0.08203 0.0702,0.135772 0.0778,2.483319 0.009,2.635376 -0.099,0.21728 -0.41282,0.267645 -0.58636,0.09411 z M 13.167139,13.66428 c -0.0406,-0.0172 -0.47672,-0.436419 -0.96913,-0.931592 -0.88941,-0.894412 -0.89528,-0.90135 -0.89528,-1.058329 0,-0.295856 0.28071,-0.461022 0.54639,-0.321492 0.16794,0.0882 1.804302,1.764538 1.822894,1.867427 0.05585,0.309091 -0.229966,0.560436 -0.504874,0.443986 z M 0.97490925,12.443931 c -0.0963,-0.0387 -0.2307,-0.242464 -0.2307,-0.349665 0,-0.140451 0.13591,-0.307155 0.28391995,-0.348258 0.0928,-0.02578 1.09378,-0.03905 2.95662,-0.03918 3.02907,-2.23e-4 2.98883,-0.0026 3.12286,0.188703 0.12297,0.175562 0.0519,0.436111 -0.14431,0.52923 -0.10569,0.05015 -0.47505,0.05687 -3.013,0.05482 -1.62693,-0.0013 -2.9288,-0.01691 -2.97538995,-0.03564 z M 7.3029292,11.66794 c -0.76814,-0.128926 -1.51386,-0.52952 -2.07673,-1.115603 l -0.29197,-0.304015 1.94508,-0.01846 1.94508,-0.01846 0.11314,-0.108434 c 0.14826,-0.1420787 0.15867,-0.3698431 0.0241,-0.5263573 l -0.0891,-0.1035855 -2.20661,-0.018459 -2.20661,-0.01846 -0.10047,-0.2976953 c -0.0917,-0.271605 -0.14615,-0.547004 -0.202,-1.021019 l -0.0205,-0.174231 -1.5824801,-0.01036 -1.58247995,-0.01037 -0.0921,-0.08657 c -0.11729,-0.110221 -0.14934,-0.238927 -0.0981,-0.39407 0.0805,-0.243957 0.0447,-0.239279 1.82919995,-0.239279 h 1.61052 l -0.0202,0.138446 c -0.0111,0.07615 -0.0308,0.24228 -0.0438,0.369188 l -0.0236,0.230743 h 1.37146 c 1.15104,0 1.38878,-0.009 1.47928,-0.05576 0.29592,-0.153025 0.22946,-0.588543 -0.10394,-0.68114 -0.0812,-0.02256 -0.64271,-0.03807 -1.38278,-0.03819 -1.43034,-2.23e-4 -1.3069,0.04141 -1.15775,-0.390618 0.14157,-0.410047 0.2361,-0.604744 0.44895,-0.924638 0.48995,-0.736359 1.23453,-1.276541 2.13941,-1.552126 0.30977,-0.09434 0.37726,-0.10117 0.9968,-0.100841 0.56635,2.93e-4 0.70689,0.01211 0.95113,0.07988 1.07172,0.297385 1.9406609,1.000931 2.4271699,1.965169 1.11582,2.211517 -0.1782,4.8939741 -2.6021999,5.3942791 -0.35217,0.07269 -1.05649,0.08833 -1.39782,0.03104 z m -4.53157,-1.577776 c -0.0899,-0.08035 -0.11503,-0.1329066 -0.11503,-0.2408182 0,-0.1649173 0.0873,-0.3110414 0.21477,-0.3595079 0.051,-0.019399 0.43206,-0.035271 0.84674,-0.035271 h 0.75397 l 0.12818,0.2492024 c 0.0705,0.1370613 0.16371,0.3031957 0.20714,0.3691887 l 0.079,0.119986 h -0.99985 -0.99986 z M 12.922709,8.2061019 c -0.0969,-0.08659 -0.11637,-0.13094 -0.11637,-0.265209 0,-0.134269 0.0195,-0.178616 0.11637,-0.265209 l 0.11637,-0.10398 h 1.274956 c 1.031261,0 1.294398,0.01005 1.376688,0.05261 0.245702,0.127057 0.245702,0.506101 0,0.633158 -0.08229,0.04255 -0.345427,0.05261 -1.376688,0.05261 H 13.03908 Z M 4.0481692,4.5483009 c -0.0609,-0.03829 -0.49702,-0.458529 -0.96912,-0.933865 -0.85143,-0.857272 -0.85836,-0.865522 -0.85836,-1.022191 0,-0.295784 0.28074,-0.460933 0.54639,-0.321421 0.0548,0.0288 0.48595,0.441451 0.95805,0.91701 0.84616,0.852361 0.85837,0.866857 0.85837,1.01959 0,0.190401 -0.0794,0.318769 -0.22946,0.371089 -0.15257,0.05319 -0.17703,0.05077 -0.30587,-0.03021 z m 7.4105498,-0.0041 c -0.0665,-0.04054 -0.13821,-0.119223 -0.159359,-0.174842 -0.0846,-0.222585 -0.0417,-0.280446 0.918969,-1.238285 0.82007,-0.817672 0.927781,-0.912607 1.035404,-0.912607 0.317155,0 0.500639,0.279345 0.358886,0.546387 -0.08078,0.152187 -1.723219,1.770618 -1.84158,1.814664 -0.142289,0.05295 -0.1733,0.04944 -0.31232,-0.03532 z M 7.7716992,2.9940749 c -0.19483,-0.07862 -0.19777,-0.10079 -0.19777,-1.488121 V 0.21916792 l 0.10791,-0.107916 c 0.11521,-0.115212 0.30725,-0.145183 0.44791,-0.0699 0.1725,0.09232 0.18255,0.174674 0.18255,1.49597898 v 1.242307 l -0.12552,0.125524 c -0.1293,0.129296 -0.25062,0.155285 -0.41508,0.08892 z"
       id="path196" /></g></svg>
