<?xml version="1.0" encoding="UTF-8" standalone="no"?>
<!-- Created with Inkscape (http://www.inkscape.org/) -->

<svg
   width="60"
   height="60"
   viewBox="0 0 15.875001 15.875"
   version="1.1"
   id="svg5"
   xml:space="preserve"
   inkscape:version="1.2.2 (b0a8486541, 2022-12-01)"
   sodipodi:docname="heavy-rain.svg"
   xmlns:inkscape="http://www.inkscape.org/namespaces/inkscape"
   xmlns:sodipodi="http://sodipodi.sourceforge.net/DTD/sodipodi-0.dtd"
   xmlns="http://www.w3.org/2000/svg"
   xmlns:svg="http://www.w3.org/2000/svg"><sodipodi:namedview
     id="namedview7"
     pagecolor="#ffffff"
     bordercolor="#111111"
     borderopacity="1"
     inkscape:showpageshadow="0"
     inkscape:pageopacity="0"
     inkscape:pagecheckerboard="1"
     inkscape:deskcolor="#d1d1d1"
     inkscape:document-units="mm"
     showgrid="false"
     inkscape:zoom="1.5500842"
     inkscape:cx="-63.222372"
     inkscape:cy="105.8007"
     inkscape:window-width="1858"
     inkscape:window-height="1040"
     inkscape:window-x="55"
     inkscape:window-y="33"
     inkscape:window-maximized="1"
     inkscape:current-layer="layer1" /><defs
     id="defs2" /><g
     inkscape:label="Layer 1"
     inkscape:groupmode="layer"
     id="layer1"><path
       style="fill:#ce93d8;fill-opacity:1;stroke-width:0.0369731"
       d="M 1.3333681,15.837514 C 1.1178138,15.713561 1.0815875,15.518708 1.2057455,15.151056 c 0.09622,-0.284923 0.2041157,-0.389771 0.4065635,-0.395079 0.1288543,-0.0033 0.1703811,0.01513 0.2606794,0.116193 0.065854,0.07371 0.1074103,0.161393 0.1074103,0.226654 0,0.176937 -0.1407377,0.57527 -0.2343129,0.663179 -0.1040348,0.09774 -0.3088903,0.135217 -0.4127177,0.07551 z m 3.7933142,-0.0057 c -0.048874,-0.02512 -0.1229829,-0.09162 -0.1646777,-0.14778 -0.068957,-0.09289 -0.071983,-0.120355 -0.033446,-0.304075 0.023297,-0.111082 0.075917,-0.277828 0.1169348,-0.370548 0.1455815,-0.329111 0.5300195,-0.353648 0.6822789,-0.04354 0.068203,0.138909 0.068057,0.141148 -0.029409,0.453775 -0.082329,0.264043 -0.1168611,0.325704 -0.2164354,0.386418 -0.1366792,0.08334 -0.2300272,0.09011 -0.3552412,0.02576 z m 3.7447996,-0.02193 C 8.693995,15.698676 8.6630684,15.560284 8.748679,15.260315 c 0.08106,-0.284036 0.1633252,-0.413703 0.3072137,-0.484253 0.195462,-0.09584 0.5040061,0.09764 0.5040061,0.316039 0,0.164135 -0.1507115,0.591326 -0.2373241,0.672694 -0.1221454,0.114749 -0.3098648,0.133493 -0.4510928,0.04504 z m -5.2599428,-1.39658 c -0.04734,-0.03316 -0.1092197,-0.115677 -0.1375029,-0.183369 -0.04668,-0.111725 -0.04284,-0.150248 0.041657,-0.417726 0.1316588,-0.416773 0.3346208,-0.570939 0.5838514,-0.443481 0.2210692,0.113055 0.2555555,0.285531 0.132618,0.663254 -0.1270303,0.390295 -0.3831446,0.547657 -0.620622,0.381322 z m 3.8224022,0.01737 c -0.2206526,-0.121345 -0.25092,-0.303327 -0.1134412,-0.682076 0.1068215,-0.29429 0.1824352,-0.379051 0.3645043,-0.408597 0.1709838,-0.02775 0.3078223,0.05533 0.3814655,0.231578 0.04908,0.117465 0.045703,0.152303 -0.043012,0.443139 -0.081043,0.265708 -0.1148254,0.326962 -0.213492,0.387123 -0.1307083,0.0797 -0.2648271,0.08998 -0.3760243,0.02883 z m 3.7226767,-0.04941 c -0.146543,-0.123308 -0.170103,-0.24235 -0.09768,-0.493547 0.118255,-0.41017 0.241654,-0.560298 0.46054,-0.560298 0.187965,0 0.369732,0.180708 0.369732,0.367577 0,0.158767 -0.160047,0.574594 -0.259389,0.673937 -0.13667,0.13667 -0.319764,0.141441 -0.473202,0.01233 z M 1.9394573,13.734316 C 1.7352404,13.626387 1.7238061,13.444295 1.888303,12.919641 c 0.161724,-0.515812 0.1678037,-0.526412 0.3486609,-0.607968 0.1440248,-0.06494 0.1560308,-0.06505 0.2948083,-0.0025 0.227232,0.102467 0.2442548,0.291226 0.076826,0.851836 -0.1399295,0.468521 -0.1638652,0.512567 -0.3186455,0.586377 -0.1580254,0.07536 -0.1850228,0.07435 -0.3504908,-0.01311 z m 3.7883873,0.0085 c -0.095302,-0.04563 -0.122406,-0.08679 -0.1504089,-0.228417 -0.030308,-0.153288 -0.017203,-0.226231 0.1162509,-0.647228 0.1501654,-0.473705 0.1506626,-0.474594 0.3076303,-0.550554 l 0.1572214,-0.07608 0.1608386,0.07814 c 0.1456535,0.07076 0.1629455,0.09351 0.1831492,0.240907 0.016697,0.121831 -0.00523,0.255126 -0.087164,0.529999 -0.157296,0.527661 -0.1771998,0.566098 -0.3347615,0.64648 -0.1617206,0.0825 -0.193218,0.08311 -0.3527563,0.0068 z m 3.7909387,-0.0086 C 9.3159396,13.627013 9.306889,13.462809 9.4729262,12.902217 c 0.072274,-0.244023 0.1540234,-0.469212 0.1816637,-0.50042 0.027643,-0.03121 0.1109349,-0.07869 0.1851,-0.105504 0.1885311,-0.06818 0.4045541,0.02529 0.4373411,0.189236 0.03765,0.188242 0.0275,0.253246 -0.113035,0.724141 -0.131494,0.440598 -0.140437,0.457663 -0.2760909,0.526868 -0.170922,0.0872 -0.2000735,0.08701 -0.3691209,-0.0023 z M 7.908915,12.910612 c -0.1436631,-0.07011 -0.1550374,-0.08711 -0.1763263,-0.263504 -0.017991,-0.149081 -0.00129,-0.25434 0.07962,-0.502824 0.098506,-0.302379 0.108654,-0.317282 0.2681658,-0.393801 0.1647917,-0.07905 0.166614,-0.07911 0.3044365,-0.0088 0.09337,0.04763 0.1460049,0.103795 0.1611669,0.171962 0.012386,0.05567 0.030111,0.129401 0.039394,0.163836 0.016217,0.06016 -0.1430758,0.633131 -0.1996404,0.718104 -0.015103,0.02269 -0.094011,0.07472 -0.1753517,0.115611 l -0.1478932,0.07437 z m -3.8088825,-0.01607 c -0.1901391,-0.09474 -0.2092388,-0.3079 -0.068837,-0.768211 0.08678,-0.284507 0.098928,-0.302802 0.2495691,-0.375835 l 0.1583478,-0.07677 0.1536497,0.07457 c 0.2190943,0.106334 0.253548,0.306889 0.1238151,0.720729 -0.097306,0.310399 -0.1311317,0.367092 -0.2582374,0.432821 -0.1335352,0.06905 -0.2081135,0.06754 -0.3583089,-0.0073 z m 7.5770075,-0.0012 c -0.132882,-0.06615 -0.155222,-0.110891 -0.162341,-0.325138 -0.0045,-0.133656 0.11713,-0.6063 0.181439,-0.705405 0.01468,-0.02262 0.09267,-0.07473 0.17331,-0.115812 l 0.146618,-0.07467 0.155778,0.07569 c 0.14292,0.06944 0.157777,0.09021 0.179984,0.251676 0.01861,0.135294 0.0019,0.249276 -0.07245,0.492877 -0.09008,0.295339 -0.106535,0.321924 -0.24194,0.391003 -0.171452,0.08747 -0.20264,0.08831 -0.360399,0.0098 z M 2.6529062,11.238649 c -0.065803,-0.05537 -0.1193203,-0.144023 -0.1339183,-0.221839 -0.017683,-0.09425 -0.043517,-0.129615 -0.094678,-0.129615 -0.152166,0 -0.6618755,-0.191593 -0.9327721,-0.350618 C 0.79927728,10.130198 0.28107182,9.441572 0.07208667,8.6503177 -0.03041048,8.2622443 -0.02242619,7.5272339 0.0885181,7.1375506 0.41242126,5.9998795 1.3107472,5.1693577 2.4550579,4.9496354 2.604277,4.9209829 2.7914539,4.8975409 2.8710062,4.8975409 H 3.0156465 V 4.6598905 c 0,-0.3837815 0.069917,-0.7892063 0.2076908,-1.2043035 C 3.4380739,2.808606 3.7445376,2.3238249 4.2417654,1.844586 5.453516,0.6766722 7.2546364,0.39926304 8.7649741,1.1479199 9.1993793,1.3632488 9.521503,1.6080822 9.8995193,2.0102417 c 0.4044877,0.4303209 0.6758407,0.894366 0.8909157,1.5235701 0.0183,0.053529 0.05437,0.050147 0.347001,-0.032532 0.282559,-0.079833 0.406322,-0.092763 0.918151,-0.095916 0.497291,-0.00307 0.643467,0.00946 0.917193,0.078556 0.93741,0.2366428 1.743639,0.7986035 2.260779,1.5758184 1.210478,1.819236 0.655127,4.2493228 -1.222943,5.3513148 -0.338269,0.198485 -0.712518,0.352797 -1.003822,0.413898 -0.189701,0.03979 -0.210338,0.05449 -0.271874,0.1936 -0.08503,0.192213 -0.176343,0.273772 -0.332745,0.297184 -0.16888,0.02528 -0.359148,-0.09388 -0.389111,-0.243694 l -0.02218,-0.110899 H 11.426907 10.86293 l -0.04484,0.108247 c -0.07104,0.1715 -0.174713,0.242998 -0.352353,0.242998 -0.17764,0 -0.281314,-0.07149 -0.352353,-0.242998 l -0.04484,-0.108247 H 9.5189316 8.9693162 l -0.05304,0.12695 c -0.1358263,0.325077 -0.6010575,0.296164 -0.7041409,-0.04376 -0.024694,-0.08142 -0.036934,-0.08318 -0.576582,-0.08318 H 7.0841987 l -0.071734,0.140606 c -0.075549,0.148079 -0.2030254,0.229126 -0.3603995,0.229126 -0.1061648,0 -0.3458074,-0.215227 -0.3458074,-0.310575 0,-0.05169 -0.072403,-0.05916 -0.5730849,-0.05916 -0.5006786,0 -0.573084,0.0075 -0.573084,0.05916 0,0.09784 -0.2397257,0.310575 -0.3499783,0.310575 -0.180756,0 -0.3868423,-0.16174 -0.3886629,-0.305029 -7.406e-4,-0.05877 -0.052731,-0.06471 -0.5667909,-0.06471 H 3.2886876 l -0.062649,0.14199 c -0.1045551,0.23698 -0.376218,0.301215 -0.573138,0.135518 z"
       id="path1054" /></g></svg>
