<?xml version="1.0" encoding="UTF-8" standalone="no"?>
<!-- Created with Inkscape (http://www.inkscape.org/) -->

<svg
   width="60"
   height="60"
   viewBox="0 0 15.875001 15.875"
   version="1.1"
   id="svg5"
   xml:space="preserve"
   inkscape:version="1.2.2 (b0a8486541, 2022-12-01)"
   sodipodi:docname="heavy-snow.svg"
   xmlns:inkscape="http://www.inkscape.org/namespaces/inkscape"
   xmlns:sodipodi="http://sodipodi.sourceforge.net/DTD/sodipodi-0.dtd"
   xmlns="http://www.w3.org/2000/svg"
   xmlns:svg="http://www.w3.org/2000/svg"><sodipodi:namedview
     id="namedview7"
     pagecolor="#ffffff"
     bordercolor="#111111"
     borderopacity="1"
     inkscape:showpageshadow="0"
     inkscape:pageopacity="0"
     inkscape:pagecheckerboard="1"
     inkscape:deskcolor="#d1d1d1"
     inkscape:document-units="mm"
     showgrid="false"
     inkscape:zoom="1.5500842"
     inkscape:cx="-46.126527"
     inkscape:cy="105.8007"
     inkscape:window-width="1858"
     inkscape:window-height="1066"
     inkscape:window-x="55"
     inkscape:window-y="7"
     inkscape:window-maximized="1"
     inkscape:current-layer="layer1" /><defs
     id="defs2" /><g
     inkscape:label="Layer 1"
     inkscape:groupmode="layer"
     id="layer1"><path
       style="fill:#ce93d8;fill-opacity:1;stroke-width:0.0352303"
       d="m 5.2128658,15.826029 c -0.092221,-0.04007 -0.1385503,-0.09988 -0.224007,-0.289271 -0.059258,-0.131318 -0.1127227,-0.244148 -0.11882,-0.250734 -0.00572,-0.0066 -0.1250125,0.02748 -0.2642487,0.07571 -0.2707938,0.09379 -0.4009223,0.08589 -0.531489,-0.03228 -0.096594,-0.08742 -0.1185342,-0.266298 -0.049159,-0.400521 0.043633,-0.08432 0.1189248,-0.140591 0.2937727,-0.219478 0.1293187,-0.05834 0.2410507,-0.111611 0.2482912,-0.118367 0.00762,-0.0068 -0.029629,-0.119129 -0.081932,-0.249718 -0.1078164,-0.269321 -0.1009284,-0.414669 0.025246,-0.532422 0.1119987,-0.104537 0.2421462,-0.127565 0.3845931,-0.06804 0.094221,0.03936 0.1436472,0.09651 0.2163854,0.250138 0.051826,0.109516 0.094317,0.213605 0.094317,0.231308 0,0.07617 0.089553,0.07178 0.3307849,-0.01622 0.2445089,-0.08917 0.2637343,-0.09113 0.3872797,-0.03952 0.1769724,0.07395 0.2508634,0.243672 0.1888144,0.433727 -0.038584,0.118289 -0.073643,0.148166 -0.2991555,0.255268 -0.1404747,0.06672 -0.2554173,0.140708 -0.2554173,0.164425 0,0.02372 0.031725,0.117093 0.070499,0.2075 0.1234501,0.288007 0.086314,0.499616 -0.1049869,0.598553 -0.1250887,0.06469 -0.1617293,0.06468 -0.3107497,-7e-5 z m 7.2328252,0.01997 c -0.104978,-0.04297 -0.176916,-0.138566 -0.266555,-0.354229 -0.0443,-0.106573 -0.08441,-0.199121 -0.08917,-0.205663 -0.0048,-0.0066 -0.124831,0.02794 -0.26684,0.07662 -0.154203,0.05287 -0.297383,0.08081 -0.355479,0.06937 -0.134892,-0.02656 -0.272651,-0.200074 -0.272651,-0.343431 0,-0.166247 0.106511,-0.278954 0.369083,-0.390546 0.126413,-0.05372 0.229838,-0.103547 0.229838,-0.110713 0,-0.0071 -0.03963,-0.11057 -0.08803,-0.229786 -0.11501,-0.283046 -0.112237,-0.387839 0.014,-0.529134 0.08307,-0.09299 0.128452,-0.114255 0.243795,-0.114255 0.183631,0 0.271594,0.07961 0.401255,0.363103 0.07831,0.171314 0.116343,0.219532 0.162025,0.205656 0.03277,-0.01 0.152431,-0.05192 0.265802,-0.09323 0.17078,-0.06222 0.226169,-0.06849 0.322992,-0.03653 0.147581,0.0487 0.228332,0.170452 0.228332,0.344252 0,0.170737 -0.116219,0.289429 -0.387537,0.395776 -0.106569,0.04178 -0.197703,0.07988 -0.202514,0.08469 -0.0048,0.0048 0.03087,0.106212 0.07926,0.225349 0.141999,0.349462 0.09922,0.557901 -0.130948,0.638141 -0.125175,0.04363 -0.159681,0.04425 -0.256646,0.0046 z M 8.7949765,14.383545 c -0.082217,-0.04621 -0.1868423,-0.221131 -0.2819021,-0.47117 -0.035059,-0.09218 -0.02315,-0.09316 -0.3717127,0.03069 -0.2149373,0.07638 -0.219234,0.07651 -0.3523063,0.01152 -0.095584,-0.04668 -0.1458479,-0.100261 -0.1730569,-0.184463 -0.079455,-0.24586 0.025056,-0.395232 0.3683402,-0.52661 l 0.2132224,-0.0816 -0.075358,-0.182639 C 8.029792,12.755254 8.0040404,12.530335 8.059039,12.427494 c 0.063735,-0.11905 0.2624958,-0.188912 0.4043234,-0.142103 0.1484011,0.04898 0.200523,0.111622 0.3030329,0.364179 0.093269,0.22992 0.078121,0.226475 0.4294459,0.09746 0.184051,-0.06758 0.213918,-0.06982 0.3231443,-0.02418 0.165845,0.0693 0.2458999,0.200584 0.2199199,0.360683 -0.027723,0.170938 -0.094984,0.23653 -0.3615759,0.352669 -0.1241551,0.05408 -0.2257314,0.10793 -0.2257314,0.119655 0,0.01172 0.040871,0.121928 0.090887,0.244896 0.1044915,0.257174 0.095174,0.403306 -0.033535,0.524168 -0.1057681,0.09937 -0.2941157,0.126037 -0.4140218,0.05862 z M 2.6698204,12.930137 C 2.5728171,12.880321 2.5270306,12.81909 2.4514534,12.638103 2.3431416,12.378759 2.3429987,12.378711 2.0146718,12.496657 c -0.2005993,0.07206 -0.2224732,0.07348 -0.344761,0.02239 -0.2279702,-0.09525 -0.2849223,-0.38444 -0.10996,-0.558265 0.044396,-0.04407 0.1755625,-0.117475 0.2915435,-0.16312 l 0.2108788,-0.08299 -0.084123,-0.206961 c -0.1485346,-0.365543 -0.096346,-0.595247 0.1507162,-0.663466 0.2236925,-0.06176 0.3491242,0.02077 0.4803197,0.316055 0.1237169,0.278442 0.1041295,0.271971 0.4438983,0.146655 0.3203244,-0.118145 0.5496474,0.0025 0.5496474,0.289133 0,0.196665 -0.066403,0.270059 -0.3553454,0.39287 -0.124279,0.05282 -0.2259505,0.106774 -0.2259505,0.119903 0,0.01313 0.040871,0.124482 0.090792,0.24745 0.1040437,0.256034 0.095174,0.403295 -0.031439,0.52223 -0.114933,0.107976 -0.2647728,0.126778 -0.4111542,0.0516 z M 14.230992,12.584563 c -0.09432,-0.04105 -0.138531,-0.0991 -0.22698,-0.298173 -0.0604,-0.135962 -0.129252,-0.247204 -0.152974,-0.247204 -0.02372,0 -0.117105,0.03171 -0.207516,0.07046 -0.360004,0.154313 -0.634151,0.043 -0.634151,-0.257479 0,-0.201113 0.06469,-0.273368 0.355355,-0.396898 0.124269,-0.05282 0.225951,-0.106775 0.225951,-0.119903 0,-0.01313 -0.04087,-0.124482 -0.09089,-0.247451 -0.139532,-0.343378 -0.05087,-0.576675 0.235525,-0.619563 0.189176,-0.02833 0.321429,0.07754 0.42834,0.342895 0.103006,0.25566 0.107331,0.256965 0.437011,0.131973 0.21124,-0.08008 0.220948,-0.08068 0.345447,-0.02132 0.22515,0.107368 0.278596,0.39019 0.10612,0.56154 -0.04439,0.04407 -0.175553,0.117476 -0.291534,0.16312 l -0.210879,0.08299 0.08412,0.206961 c 0.111675,0.274827 0.110884,0.466617 -0.0019,0.579882 -0.04754,0.04756 -0.109674,0.08648 -0.138036,0.08648 -0.02839,0 -0.07269,0.0073 -0.09849,0.01633 -0.02582,0.009 -0.09963,-0.0066 -0.164053,-0.03464 z M 7.7044848,10.350837 C 7.6100728,10.256415 7.6015081,10.227127 7.6015081,9.9985326 V 9.7492097 h 0.3522967 0.3523063 v 0.2147544 c 0,0.3298929 -0.1279754,0.4898539 -0.3919003,0.4898539 -0.070976,0 -0.1412178,-0.03448 -0.209726,-0.102981 z M 3.2480867,9.7123433 C 2.2406317,9.5807448 1.331571,8.8845588 0.95732416,7.9580181 0.79045979,7.5449023 0.75002745,7.3263724 0.7509992,6.842701 0.75166608,6.4754984 0.76767134,6.3294249 0.83131131,6.1058476 1.1399461,5.0218008 1.9959323,4.2304266 3.0863002,4.0210611 3.2284898,3.9937598 3.4068436,3.971422 3.4826495,3.971422 H 3.6204662 V 3.7449714 c 0,-0.54482 0.1849846,-1.2693171 0.4459085,-1.7464549 C 4.803798,0.65006715 6.304034,-0.14545442 7.7935236,0.02214972 8.7439407,0.12909582 9.4958831,0.50071549 10.143715,1.183644 c 0.420138,0.4429023 0.674288,0.870155 0.884596,1.4870876 0.01686,0.049372 0.0563,0.045733 0.348257,-0.032113 0.463123,-0.1234831 1.270551,-0.1299824 1.731693,-0.013939 0.436315,0.1097929 0.798929,0.2689797 1.154484,0.5068013 1.535771,1.027262 2.052637,3.0125805 1.209255,4.6448244 -0.569006,1.1012401 -1.604737,1.8054792 -2.850156,1.9379551 -0.174391,0.018549 -1.156885,0.034002 -2.183318,0.034335 C 8.6698021,9.7491678 8.5768286,9.7460229 8.6593891,9.6891662 8.7964818,9.594678 8.8323031,9.5306112 8.8326651,9.3792834 8.8331986,9.1546943 8.6756897,9.0093637 8.4317333,9.0093637 H 8.3061111 v -0.582541 -0.582542 l 0.079264,0.041804 c 0.099442,0.052446 0.9209885,0.5281203 0.935498,0.541659 0.00572,0.00553 -0.021817,0.063297 -0.061544,0.1284594 -0.1665595,0.2731907 -0.00286,0.5588523 0.3202195,0.5588523 0.1063778,0 0.3144653,-0.1641454 0.3517537,-0.2774722 0.012195,-0.036945 0.062306,-0.022283 0.2110787,0.061649 0.291525,0.1645255 0.459208,0.1464939 0.605018,-0.06505 0.13152,-0.1908303 0.04144,-0.4039451 -0.238345,-0.5640367 l -0.193911,-0.110947 0.07307,-0.1431956 C 10.511922,7.7735194 10.406697,7.5366977 10.146249,7.4713248 10.024704,7.4408195 9.834985,7.5413764 9.7673628,7.6721356 9.7266828,7.7508662 9.6937196,7.775763 9.651277,7.7599644 9.5552645,7.7242479 8.6951628,7.2318671 8.6951628,7.2126112 c 0,-0.021045 0.9070981,-0.5412436 0.9713955,-0.5570698 0.024579,-0.006 0.069261,0.036583 0.099356,0.094746 0.1147143,0.2218171 0.3111317,0.2735589 0.5155417,0.135805 0.170303,-0.1147672 0.206687,-0.2686216 0.110388,-0.4668372 L 10.316867,6.2650266 10.509902,6.1545808 C 10.78968,5.9945101 10.87204,5.8003767 10.748742,5.5916424 10.628312,5.3877744 10.426055,5.3658768 10.142353,5.5259923 9.9936277,5.6099341 9.9434302,5.6245932 9.9312738,5.5876411 9.8932613,5.472166 9.6859265,5.310168 9.576119,5.310168 c -0.1504018,0 -0.2962879,0.080998 -0.3472189,0.1927834 -0.05821,0.1278467 -0.053065,0.1935721 0.027819,0.3522433 0.038489,0.075434 0.066212,0.1405605 0.061639,0.1447162 -0.013243,0.012052 -0.8455446,0.4930685 -0.9330686,0.5392285 l -0.079264,0.041804 V 5.9984018 5.4158608 h 0.1256223 c 0.2442612,0 0.4008079,-0.1448809 0.402056,-0.3720842 C 8.8346564,4.825139 8.6628666,4.6760215 8.4094214,4.6760215 c -0.1029767,0 -0.1033959,-8.518e-4 -0.1033959,-0.213132 0,-0.2460485 -0.061544,-0.38961 -0.1927776,-0.4493868 C 7.8006211,3.8710611 7.5669539,4.090166 7.5663822,4.5262922 7.5662108,4.6716629 7.5625715,4.6760253 7.4516874,4.6761529 7.3020573,4.6763263 7.1159485,4.791971 7.0697428,4.9134766 c -0.089744,0.235969 0.064688,0.4628798 0.3357104,0.4934308 l 0.1607385,0.01812 V 6.0057995 6.5865711 L 7.4869275,6.5350399 C 7.4432942,6.5066973 7.2213831,6.3767222 6.9937083,6.2462033 6.7660239,6.1156842 6.5803057,5.9983294 6.5809917,5.9854147 6.5816872,5.9724962 6.6049043,5.9222987 6.6326277,5.8738571 6.776837,5.6215856 6.6171941,5.3101699 6.3437232,5.3101699 c -0.1599478,0 -0.2718608,0.06948 -0.3474856,0.215729 L 5.9415529,5.6316603 5.7503663,5.5237601 C 5.499541,5.382205 5.3411556,5.3807817 5.2031007,5.5188061 5.0055405,5.7163644 5.0870244,6.0051983 5.3829027,6.1561432 c 0.175067,0.089315 0.1891478,0.1169918 0.1238025,0.2433484 -0.064593,0.1248496 -0.068975,0.3159419 -0.00953,0.3919354 0.078788,0.099981 0.216052,0.1745355 0.3213342,0.1745355 0.078407,0 0.1414179,-0.039966 0.2547028,-0.1616188 L 6.2237219,6.6427239 6.7010121,6.9140874 c 0.2625148,0.14925 0.4772997,0.2835694 0.4772997,0.2984885 0,0.014919 -0.2147849,0.1492386 -0.4772997,0.2984886 L 6.2237219,7.7824271 6.0732153,7.6208082 C 5.9196219,7.4558769 5.8464264,7.4315317 5.6866977,7.4922612 5.4684165,7.5752504 5.3913054,7.8032701 5.5063051,8.0256594 5.5716599,8.1520162 5.5575601,8.1796967 5.3825025,8.2690089 5.0866243,8.4199537 5.0051404,8.7087877 5.2027006,8.906346 5.3407555,9.0444066 5.4991409,9.0429833 5.7499662,8.901392 l 0.1911866,-0.1078993 0.054685,0.1057605 c 0.075644,0.14625 0.1875379,0.215729 0.3474857,0.215729 0.2735089,0 0.4331138,-0.3114157 0.2889045,-0.5636862 C 6.6045042,8.5028515 6.5813537,8.4526531 6.5805916,8.4397383 6.5799056,8.4268198 6.7656238,8.3094679 6.9932986,8.1789488 7.220983,8.0484297 7.4429321,7.9184537 7.4865274,7.890112 l 0.079264,-0.051531 v 0.5807718 0.5807718 l -0.1626916,0.018339 c -0.2302852,0.025961 -0.3481525,0.1496616 -0.3481525,0.3654077 0,0.1412531 0.015338,0.1744183 0.1219734,0.2634276 L 7.2988943,9.7491287 5.3801684,9.7446511 C 4.3248692,9.7421741 3.3652204,9.7276169 3.2476008,9.7122499 Z"
       id="path582" /></g></svg>
