<?xml version="1.0" encoding="UTF-8" standalone="no"?>
<!-- Created with Inkscape (http://www.inkscape.org/) -->

<svg
   width="60"
   height="60"
   viewBox="0 0 15.875001 15.875"
   version="1.1"
   id="svg5"
   xml:space="preserve"
   inkscape:version="1.2.2 (b0a8486541, 2022-12-01)"
   sodipodi:docname="light-snow.svg"
   xmlns:inkscape="http://www.inkscape.org/namespaces/inkscape"
   xmlns:sodipodi="http://sodipodi.sourceforge.net/DTD/sodipodi-0.dtd"
   xmlns="http://www.w3.org/2000/svg"
   xmlns:svg="http://www.w3.org/2000/svg"><sodipodi:namedview
     id="namedview7"
     pagecolor="#ffffff"
     bordercolor="#111111"
     borderopacity="1"
     inkscape:showpageshadow="0"
     inkscape:pageopacity="0"
     inkscape:pagecheckerboard="1"
     inkscape:deskcolor="#d1d1d1"
     inkscape:document-units="mm"
     showgrid="false"
     inkscape:zoom="1.5500842"
     inkscape:cx="-46.126527"
     inkscape:cy="105.8007"
     inkscape:window-width="1858"
     inkscape:window-height="1066"
     inkscape:window-x="55"
     inkscape:window-y="7"
     inkscape:window-maximized="1"
     inkscape:current-layer="layer1" /><defs
     id="defs2" /><g
     inkscape:label="Layer 1"
     inkscape:groupmode="layer"
     id="layer1"><path
       style="fill:#ce93d8;fill-opacity:1;stroke-width:0.0369849"
       d="m 7.2691106,15.815205 c -0.0747,-0.05231 -0.15259,-0.194088 -0.26587,-0.483816 l -0.0318,-0.08129 -0.22282,0.09054 c -0.30458,0.123759 -0.46024,0.119179 -0.59699,-0.01757 -0.2253799,-0.225386 -0.1045199,-0.507106 0.28574,-0.666002 0.11902,-0.04846 0.22146,-0.09195 0.22764,-0.09665 0.006,-0.0047 -0.0313,-0.113142 -0.0832,-0.240993 -0.052,-0.127852 -0.0945,-0.272022 -0.0945,-0.32038 0,-0.200608 0.17636,-0.380128 0.37343,-0.380128 0.16793,0 0.27902,0.103408 0.39875,0.371179 0.0712,0.15932 0.13606,0.257704 0.16308,0.247533 0.545383,-0.205312 0.623512,-0.209837 0.787726,-0.04562 0.113685,0.113685 0.12138,0.337732 0.01619,0.471457 -0.0402,0.0511 -0.181664,0.139058 -0.314366,0.19546 -0.13271,0.0564 -0.24129,0.105503 -0.24129,0.109115 0,0.0036 0.0416,0.108966 0.0925,0.234119 0.11799,0.290379 0.11726,0.415792 -0.003,0.559048 -0.0789,0.09372 -0.12308,0.113793 -0.25066,0.113793 -0.0852,0 -0.19333,-0.02691 -0.24028,-0.05979 z M 11.02725,13.895449 c -0.05132,-0.05132 -0.130517,-0.192791 -0.175985,-0.314372 -0.04547,-0.121581 -0.08609,-0.221057 -0.09028,-0.221057 -0.0042,0 -0.110005,0.04161 -0.235158,0.09246 -0.125153,0.05085 -0.270317,0.09246 -0.322585,0.09246 -0.2360964,0 -0.4233994,-0.219512 -0.3701964,-0.433855 0.03765,-0.151679 0.150679,-0.253505 0.3844424,-0.346335 0.114821,-0.0456 0.214567,-0.08729 0.221659,-0.09266 0.0071,-0.0054 -0.03316,-0.139873 -0.08944,-0.298905 -0.100074,-0.282773 -0.10093,-0.292096 -0.03885,-0.422719 0.103094,-0.216919 0.368917,-0.286896 0.549687,-0.144703 0.0511,0.0402 0.139059,0.181664 0.195461,0.314372 0.0564,0.132708 0.108703,0.241287 0.116227,0.241287 0.0075,0 0.116077,-0.04161 0.24123,-0.09246 0.297142,-0.12074 0.407153,-0.117827 0.555485,0.01471 0.09785,0.08743 0.119944,0.134738 0.119944,0.256809 0,0.194306 -0.0989,0.29965 -0.402425,0.42865 l -0.233564,0.09927 0.103039,0.266012 c 0.116915,0.301837 0.110688,0.420974 -0.02933,0.560987 -0.130635,0.130634 -0.368766,0.130659 -0.499373,3.7e-5 z M 3.9102906,13.189398 c -0.11266,-0.05556 -0.15748,-0.123514 -0.28385,-0.430383 -0.0314,-0.07628 -0.0717,-0.138693 -0.0896,-0.138693 -0.0179,0 -0.13876,0.04318 -0.26865,0.09596 -0.2068,0.08403 -0.2534,0.09079 -0.37489,0.05439 -0.17146,-0.05137 -0.25236,-0.161301 -0.25236,-0.342922 0,-0.183171 0.137,-0.327315 0.41324,-0.434793 l 0.20982,-0.08164 -0.0896,-0.238103 c -0.11695,-0.310717 -0.11599,-0.45885 0.004,-0.57859 0.10976,-0.109762 0.25385,-0.145402 0.38549,-0.09535 0.15051,0.05722 0.21121,0.131948 0.29996,0.369271 0.0935,0.2501 0.0769,0.246086 0.4511501,0.10864 0.19207,-0.07053 0.22505,-0.0731 0.33728,-0.0262 0.25036,0.104609 0.32169,0.369815 0.15329,0.569952 -0.0534,0.06347 -0.18473,0.143788 -0.31437,0.192272 -0.12246,0.0458 -0.22265,0.08758 -0.22265,0.09285 0,0.0053 0.0416,0.120122 0.0925,0.255228 0.12362,0.328421 0.11879,0.409957 -0.0333,0.562032 -0.13916,0.139164 -0.2374,0.154727 -0.4171501,0.06608 z m -1.43579,-3.028692 C 1.4816106,9.973089 0.67806064,9.345682 0.25410064,8.427042 0.04923064,7.983135 6.3918148e-7,7.742224 6.3918148e-7,7.183539 6.3918148e-7,6.624854 0.04920064,6.383943 0.25410064,5.940036 0.70749064,4.957621 1.5869306,4.316273 2.6686706,4.17917 l 0.34211,-0.04336 V 3.889243 c 0,-0.301741 0.0863,-0.820976 0.19021,-1.143894 0.43779,-1.36102 1.6264501,-2.413436 3.02565,-2.67886 0.39427,-0.07479 1.1247,-0.07499 1.51781,-4.23e-4 1.249454,0.237017 2.2766014,1.039351 2.8322614,2.212361 0.09002,0.190041 0.1744,0.399136 0.187504,0.464654 0.01989,0.09947 0.03669,0.115431 0.101827,0.09675 0.525002,-0.150605 0.731704,-0.182039 1.206043,-0.183407 0.680894,-0.002 1.129053,0.100793 1.719799,0.394325 0.712723,0.354141 1.326375,0.967404 1.679298,1.678233 0.707748,1.425486 0.470989,3.105908 -0.598846,4.250387 -0.469727,0.5025 -0.958649,0.820766 -1.598241,1.040379 -0.571344,0.19618 -0.577064,0.196372 -5.7511554,0.193002 -3.80648,-0.0025 -4.84269,-0.01316 -5.04844,-0.05204 z"
       id="path686" /></g></svg>
