<?xml version="1.0" encoding="UTF-8" standalone="no"?>
<!-- Created with Inkscape (http://www.inkscape.org/) -->

<svg
   width="60"
   height="60"
   viewBox="0 0 15.875001 15.875"
   version="1.1"
   id="svg5"
   xml:space="preserve"
   inkscape:version="1.2.2 (b0a8486541, 2022-12-01)"
   sodipodi:docname="partly-cloudy-night.svg"
   xmlns:inkscape="http://www.inkscape.org/namespaces/inkscape"
   xmlns:sodipodi="http://sodipodi.sourceforge.net/DTD/sodipodi-0.dtd"
   xmlns="http://www.w3.org/2000/svg"
   xmlns:svg="http://www.w3.org/2000/svg"><sodipodi:namedview
     id="namedview7"
     pagecolor="#ffffff"
     bordercolor="#111111"
     borderopacity="1"
     inkscape:showpageshadow="0"
     inkscape:pageopacity="0"
     inkscape:pagecheckerboard="1"
     inkscape:deskcolor="#d1d1d1"
     inkscape:document-units="mm"
     showgrid="false"
     inkscape:zoom="3.1001684"
     inkscape:cx="-89.027422"
     inkscape:cy="105.8007"
     inkscape:window-width="1858"
     inkscape:window-height="1040"
     inkscape:window-x="55"
     inkscape:window-y="33"
     inkscape:window-maximized="1"
     inkscape:current-layer="layer1" /><defs
     id="defs2" /><g
     inkscape:label="Layer 1"
     inkscape:groupmode="layer"
     id="layer1"><path
       style="fill:#ce93d8;fill-opacity:1;stroke-width:0.0336404"
       d="m 4.1080289,15.840531 c -0.25457,-0.04228 -0.61547,-0.173191 -0.83951,-0.304511 -0.28809,-0.168865 -0.73952,-0.637075 -0.88615,-0.919084 -0.21919,-0.421552 -0.28023,-0.679667 -0.27842,-1.177416 0.001,-0.388631 0.012,-0.467293 0.095,-0.70645 0.23207,-0.66867 0.67,-1.16312 1.28269,-1.448231 0.21507,-0.100082 0.32072,-0.134946 0.60172,-0.198575 0.0963,-0.02181 0.097,-0.02355 0.077,-0.214697 -0.0262,-0.250492 0.0245,-0.726111 0.11351,-1.0652178 0.28467,-1.084548 1.15974,-2.0093218 2.24168,-2.3690131 0.57263,-0.1903697 1.34302,-0.2179027 1.92808,-0.068907 0.33545,0.085428 0.81173,0.3014099 1.11426,0.5052839 0.27493,0.1852758 0.6836001,0.5939683 0.8689201,0.8689647 0.1568,0.2326682 0.37463,0.678072 0.43963,0.8989094 l 0.0406,0.1380016 0.20642,-0.044308 c 0.27733,-0.05953 0.93751,-0.058388 1.22184,0.00211 0.7216,0.1535397 1.33822,0.5219633 1.77333,1.0595423 0.68961,0.852009 0.88971,1.905967 0.55829,2.940598 -0.24043,0.750563 -0.84319,1.449153 -1.5641,1.812757 -0.24066,0.121386 -0.66692,0.249465 -0.97098,0.291756 -0.32267,0.04488 -7.7529001,0.04348 -8.0237801,-0.0015 z M 14.407599,10.108264 c -0.51418,-0.5254305 -1.15882,-0.8789098 -1.91033,-1.0475071 -0.12952,-0.029056 -0.43872,-0.058835 -0.68712,-0.066175 l -0.45164,-0.013345 -0.12931,-0.2383165 c -0.52781,-0.972723 -1.4819401,-1.730057 -2.5438601,-2.0191726 -0.14222,-0.038719 -0.2625,-0.073875 -0.2673,-0.078126 -0.0186,-0.016446 0.1647,-0.5343135 0.24803,-0.7007767 0.37099,-0.7411955 0.97573,-1.3433046 1.7286701,-1.7211667 0.39134,-0.1963972 0.64238,-0.2732756 1.31197,-0.4017812 0.0434,-0.00833 0.0505,0.077929 0.0505,0.6157314 0,0.7208358 0.0264,0.8503774 0.28463,1.3991463 0.41458,0.8808485 1.20927,1.5042286 2.17052,1.7026276 0.39588,0.081707 0.78823,0.079828 1.25826,-0.00603 0.20935,-0.038238 0.38834,-0.061814 0.39776,-0.052391 0.0317,0.031667 -0.0572,0.7829534 -0.12315,1.0406706 -0.0903,0.3529999 -0.24571,0.7288661 -0.4284,1.0359846 -0.15101,0.2538581 -0.59384,0.8063336 -0.64218,0.8011806 -0.0134,-0.0014 -0.13356,-0.114179 -0.26702,-0.250556 z M 0.46820888,9.2202288 c -0.0541,-0.054083 -0.0983,-0.1297745 -0.0983,-0.1682023 0,-0.048551 -0.0216,-0.069868 -0.0707,-0.069868 -0.10645,0 -0.29942000159,-0.2093201 -0.299270001593,-0.3246305 C 1.8887841e-4,8.5106236 0.11707888,8.3447667 0.23743888,8.3206939 c 0.0803,-0.016054 0.11463,-0.049591 0.15553,-0.1518295 0.054,-0.1349214 0.18315,-0.2295608 0.31329,-0.2295608 0.1646,0 0.33641002,0.1640239 0.33641002,0.3211672 0,0.026883 0.03,0.048878 0.0668,0.048878 0.0367,0 0.11392,0.042144 0.17156,0.093653 0.0829,0.074074 0.10482,0.1206841 0.10482,0.2229545 0,0.1601421 -0.0952,0.2948341 -0.23722,0.3355603 -0.0718,0.020582 -0.10591,0.05133 -0.10591,0.095376 0,0.035751 -0.0443,0.1092524 -0.0983,0.1633359 -0.0771,0.077121 -0.12847,0.098334 -0.23807,0.098334 -0.10959,0 -0.16095,-0.021213 -0.23807,-0.098334 z M 3.2722689,5.8208721 c -0.12016,-0.073267 -0.13939,-0.1265473 -0.15203,-0.4214235 l -0.009,-0.2018428 -0.26372,-0.01682 c -0.23699,-0.015115 -0.27194,-0.026387 -0.34481,-0.1112075 -0.087,-0.1012094 -0.10801,-0.2802633 -0.0465,-0.395263 0.058,-0.1083787 0.21531,-0.1663389 0.45147,-0.1663389 h 0.22034 V 4.2620162 c 0,-0.2032167 0.0122,-0.2591127 0.0705,-0.3216451 0.15816,-0.1697718 0.37405,-0.1694498 0.51729,7.756e-4 0.073,0.086763 0.085,0.1339181 0.085,0.3339315 v 0.2329022 h 0.2329 c 0.20001,0 0.24717,0.012005 0.33393,0.085011 0.17022,0.143232 0.17054,0.3591209 7.8e-4,0.5172875 -0.0625,0.058258 -0.11843,0.070511 -0.32165,0.070511 h -0.24596 v 0.2170802 c 0,0.2569206 -0.0467,0.3760907 -0.17308,0.4414318 -0.1262,0.065262 -0.22717,0.060034 -0.35585,-0.018425 z"
       id="path250" /></g></svg>
