<?xml version="1.0" encoding="UTF-8" standalone="no"?>
<!-- Created with Inkscape (http://www.inkscape.org/) -->

<svg
   width="60"
   height="60"
   viewBox="0 0 15.875001 15.875"
   version="1.1"
   id="svg5"
   xml:space="preserve"
   inkscape:version="1.2.2 (b0a8486541, 2022-12-01)"
   sodipodi:docname="partly-cloudy.svg"
   xmlns:inkscape="http://www.inkscape.org/namespaces/inkscape"
   xmlns:sodipodi="http://sodipodi.sourceforge.net/DTD/sodipodi-0.dtd"
   xmlns="http://www.w3.org/2000/svg"
   xmlns:svg="http://www.w3.org/2000/svg"><sodipodi:namedview
     id="namedview7"
     pagecolor="#ffffff"
     bordercolor="#111111"
     borderopacity="1"
     inkscape:showpageshadow="0"
     inkscape:pageopacity="0"
     inkscape:pagecheckerboard="1"
     inkscape:deskcolor="#d1d1d1"
     inkscape:document-units="mm"
     showgrid="false"
     inkscape:zoom="1.5500842"
     inkscape:cx="-46.126527"
     inkscape:cy="105.8007"
     inkscape:window-width="1858"
     inkscape:window-height="1066"
     inkscape:window-x="55"
     inkscape:window-y="7"
     inkscape:window-maximized="1"
     inkscape:current-layer="layer1" /><defs
     id="defs2" /><g
     inkscape:label="Layer 1"
     inkscape:groupmode="layer"
     id="layer1"><path
       style="fill:#ce93d8;fill-opacity:1;stroke-width:0.0310356"
       d="m 6.1140197,15.867152 c -0.408091,-0.06216 -0.686548,-0.166052 -0.997945,-0.372334 -0.791394,-0.524252 -1.167188,-1.55948 -0.891046,-2.454637 0.254983,-0.826565 0.87082,-1.383251 1.741572,-1.574292 l 0.08535,-0.01872 4.1e-4,-0.348559 c 0.0027,-2.3490683 2.465784,-3.8640233 4.5900023,-2.8232023 0.694506,0.340293 1.226216,0.926414 1.526973,1.683233 0.06444,0.1621613 0.125171,0.2925743 0.134952,0.2898063 0.342892,-0.09703 1.138538,-0.08773 1.491058,0.01741 1.00702,0.300368 1.758683,1.076191 2.00861,2.073172 0.0954,0.38055 0.09461,1.031943 -0.0017,1.385913 -0.278724,1.024594 -1.060252,1.800484 -2.090165,2.075088 l -0.258151,0.06883 -3.6311713,0.0051 c -1.997143,0.0028 -3.666085,-2.47e-4 -3.708759,-0.0068 z m -4.488777,-2.487527 c -0.09041,-0.07324 -0.135534,-0.169896 -0.135534,-0.290339 0,-0.08992 0.06801,-0.169608 0.612954,-0.718229 0.337125,-0.3394 0.653057,-0.63821 0.702072,-0.664023 0.124434,-0.06553 0.276316,-0.0306 0.374546,0.08614 0.08944,0.106297 0.1003,0.208402 0.03527,0.331737 -0.0243,0.04609 -0.321876,0.359636 -0.661276,0.696761 -0.594001,0.590018 -0.621671,0.612928 -0.739466,0.612264 -0.06879,-3.87e-4 -0.151359,-0.02417 -0.188571,-0.05431 z m 2.362835,-1.748083 c -0.892922,-0.601628 -1.307455,-1.6966473 -1.03927,-2.7453093 0.111865,-0.43742 0.299139,-0.773882 0.618651,-1.11149 0.316472,-0.334396 0.671582,-0.549572 1.140414,-0.691025 0.237646,-0.0717 0.328066,-0.08247 0.692327,-0.08247 0.364261,0 0.454681,0.01077 0.692327,0.08247 0.433406,0.130764 0.822752,0.35672 1.076705,0.624862 l 0.108625,0.114694 -0.07712,0.05126 c -0.999366,0.664333 -1.603419,1.597812 -1.76144,2.7220603 l -0.04966,0.353303 -0.225659,0.107165 c -0.280988,0.13344 -0.529873,0.30239 -0.777321,0.527666 -0.105102,0.09568 -0.195881,0.173591 -0.201731,0.173124 -0.0058,-4.69e-4 -0.09443,-0.05731 -0.196851,-0.126313 z M 0.08211872,9.7583857 C 0.01693872,9.6979757 -1.281949e-6,9.6536927 -1.281949e-6,9.5436747 c 0,-0.326996 0.00980000195,-0.329895 1.113360981949,-0.329895 h 0.899193 l 0.09321,0.07843 c 0.05126,0.04314 0.102182,0.119295 0.113152,0.169242 0.0258,0.117478 -0.05535,0.290939 -0.157999,0.337707 -0.05236,0.02386 -0.373048,0.03534 -0.987113,0.03534 H 0.16424372 Z M 2.7776877,7.3239937 c -0.05121,-0.03215 -0.361953,-0.32969 -0.690543,-0.661204 -0.588443,-0.593679 -0.597436,-0.604746 -0.597436,-0.735229 0,-0.186948 0.127017,-0.313915 0.31404,-0.313915 0.131067,0 0.140069,0.0074 0.778114,0.64285 0.698737,0.695855 0.731419,0.744471 0.631009,0.938642 -0.04736,0.0916 -0.202392,0.187715 -0.302286,0.187423 -0.02189,-6.3e-5 -0.08169,-0.02642 -0.132898,-0.05857 z m 4.956783,0.01314 c -0.135489,-0.06047 -0.20961,-0.228495 -0.163043,-0.369594 0.02134,-0.06464 0.253342,-0.319025 0.662763,-0.726676 0.621549,-0.618861 0.631699,-0.627213 0.762152,-0.627213 0.16617,0 0.238408,0.03834 0.301256,0.159868 0.09788,0.189277 0.06308,0.240784 -0.630901,0.933816 -0.689626,0.688684 -0.733655,0.718429 -0.932227,0.629799 z m -2.446368,-1.009045 c -0.03605,-0.01457 -0.09598,-0.06518 -0.133182,-0.112471 -0.06656,-0.08462 -0.06749,-0.100744 -0.0586,-1.013969 l 0.009,-0.927981 0.08708,-0.07486 c 0.127803,-0.109876 0.308364,-0.103177 0.427396,0.01585 l 0.09072,0.09072 v 0.900961 c 0,0.607634 -0.0115,0.92621 -0.03534,0.978514 -0.03462,0.07599 -0.196874,0.175578 -0.279711,0.171685 -0.02302,-0.0011 -0.07136,-0.01388 -0.107406,-0.02845 z"
       id="path721" /></g></svg>
