<?xml version="1.0" encoding="UTF-8" standalone="no"?>
<!-- Created with Inkscape (http://www.inkscape.org/) -->

<svg
   width="60"
   height="60"
   viewBox="0 0 15.875001 15.875"
   version="1.1"
   id="svg5"
   xml:space="preserve"
   inkscape:version="1.2.2 (b0a8486541, 2022-12-01)"
   sodipodi:docname="sunny.svg"
   xmlns:inkscape="http://www.inkscape.org/namespaces/inkscape"
   xmlns:sodipodi="http://sodipodi.sourceforge.net/DTD/sodipodi-0.dtd"
   xmlns="http://www.w3.org/2000/svg"
   xmlns:svg="http://www.w3.org/2000/svg"><sodipodi:namedview
     id="namedview7"
     pagecolor="#ffffff"
     bordercolor="#111111"
     borderopacity="1"
     inkscape:showpageshadow="0"
     inkscape:pageopacity="0"
     inkscape:pagecheckerboard="1"
     inkscape:deskcolor="#d1d1d1"
     inkscape:document-units="mm"
     showgrid="false"
     inkscape:zoom="1.5500842"
     inkscape:cx="-45.803963"
     inkscape:cy="105.8007"
     inkscape:window-width="1858"
     inkscape:window-height="1066"
     inkscape:window-x="55"
     inkscape:window-y="7"
     inkscape:window-maximized="1"
     inkscape:current-layer="layer1" /><defs
     id="defs2" /><g
     inkscape:label="Layer 1"
     inkscape:groupmode="layer"
     id="layer1"><path
       style="fill:#ba68c8;fill-opacity:1;stroke-width:0.0368617"
       d="m 7.797014,15.849283 c -0.194842,-0.08328 -0.197532,-0.103471 -0.196648,-1.475652 7.38e-4,-1.150232 0.0069,-1.28031 0.06451,-1.351366 0.156267,-0.192916 0.401345,-0.216038 0.564156,-0.05323 l 0.10775,0.107749 v 1.29094 c 0,1.285874 -3.34e-4,1.291318 -0.083,1.387429 -0.0913,0.106147 -0.318914,0.153051 -0.45677,0.09413 z M 2.417538,13.639606 c -0.136666,-0.08334 -0.217426,-0.25927 -0.183512,-0.39977 0.01613,-0.06684 0.339712,-0.417102 0.937122,-1.014413 0.816559,-0.816422 0.925036,-0.912327 1.031923,-0.912327 0.316181,0 0.499263,0.279116 0.357838,0.545541 -0.06349,0.119611 -1.70065,1.751568 -1.81547,1.809704 -0.11437,0.05791 -0.197808,0.05059 -0.327901,-0.02873 z m 10.729695,-2.79e-4 c -0.06082,-0.03824 -0.49625,-0.457824 -0.96762,-0.932424 -0.850118,-0.855944 -0.857034,-0.864181 -0.857034,-1.020608 0,-0.295448 0.280726,-0.46045 0.54554,-0.320651 0.1708,0.09017 1.805762,1.761302 1.833626,1.874192 0.03465,0.140372 -0.04579,0.316124 -0.182957,0.39977 -0.143334,0.0874 -0.232156,0.08734 -0.371555,-2.93e-4 z M 7.194067,11.646374 C 5.436663,11.270502 4.209237,9.7540437 4.209237,7.9586803 c 0,-1.0402224 0.364507,-1.9185574 1.102438,-2.6564874 0.73793,-0.737931 1.616265,-1.102439 2.656488,-1.102439 1.040222,0 1.918557,0.364508 2.656488,1.102439 0.557643,0.557643 0.877593,1.149432 1.037642,1.9192533 0.09474,0.4556773 0.07675,1.234513 -0.03845,1.6652436 -0.1854,0.6931874 -0.497136,1.2285602 -1.016895,1.7464042 -0.536559,0.534583 -1.144351,0.862401 -1.88312,1.01568 -0.434811,0.09021 -1.101631,0.08917 -1.529761,-0.0024 z M 0.140473,8.2512551 c -0.188624,-0.1483724 -0.187032,-0.4380296 0.0032,-0.5876903 0.08924,-0.070194 0.150535,-0.073502 1.362031,-0.073502 1.376165,0 1.426957,0.00676 1.515782,0.2017096 0.05569,0.1222161 0.05569,0.211599 0,0.3338151 -0.08882,0.1949506 -0.139617,0.2017095 -1.515782,0.2017095 -1.225669,0 -1.27186,-0.00257 -1.365261,-0.076042 z m 12.801185,-0.031707 c -0.08451,-0.084505 -0.107749,-0.1407807 -0.107749,-0.2608674 0,-0.1200866 0.02324,-0.1763622 0.107749,-0.2608673 l 0.10775,-0.1077498 h 1.309371 1.30937 l 0.103426,0.088963 c 0.08853,0.076153 0.103425,0.1164209 0.103425,0.2796544 0,0.1632336 -0.01489,0.2035018 -0.103425,0.2796544 l -0.103426,0.088963 h -1.30937 -1.309371 z M 4.116114,4.5883329 C 4.055294,4.5608829 3.611569,4.1418989 3.130063,3.6572549 2.261025,2.7825559 2.254598,2.7749279 2.254598,2.6183499 c 0,-0.222583 0.150665,-0.373235 0.373269,-0.373235 0.156794,0 0.163316,0.0055 1.053176,0.89268 0.589498,0.587703 0.908693,0.932943 0.934301,1.010535 0.057,0.172698 -0.03295,0.36827 -0.201826,0.438831 -0.154402,0.06451 -0.157031,0.06452 -0.297404,0.0012 z m 7.398609,-0.0027 c -0.160744,-0.06984 -0.24915,-0.269366 -0.193741,-0.437259 0.02561,-0.07759 0.344803,-0.422833 0.934301,-1.010536 0.88986,-0.887151 0.896382,-0.892679 1.053175,-0.892679 0.295651,0 0.460783,0.281139 0.320432,0.54554 -0.08066,0.151952 -1.72055,1.767878 -1.838724,1.811855 -0.127776,0.04755 -0.126941,0.0476 -0.275443,-0.01692 z M 7.787912,3.0046759 C 7.606977,2.9043909 7.602248,2.8667159 7.600852,1.5143049 l -0.0013,-1.26534895 0.107749,-0.10775 c 0.15173,-0.15173 0.370005,-0.15173 0.521735,0 l 0.10775,0.10775 V 1.5033549 c 0,0.894034 -0.01265,1.282166 -0.04404,1.351052 -0.08072,0.177156 -0.325084,0.249895 -0.50483,0.150269 z"
       id="path792" /></g></svg>
