<?xml version="1.0" encoding="UTF-8" standalone="no"?>
<!-- Created with Inkscape (http://www.inkscape.org/) -->

<svg
   width="60"
   height="60"
   viewBox="0 0 15.875001 15.875"
   version="1.1"
   id="svg5"
   xml:space="preserve"
   inkscape:version="1.2.2 (b0a8486541, 2022-12-01)"
   sodipodi:docname="clear.svg"
   xmlns:inkscape="http://www.inkscape.org/namespaces/inkscape"
   xmlns:sodipodi="http://sodipodi.sourceforge.net/DTD/sodipodi-0.dtd"
   xmlns="http://www.w3.org/2000/svg"
   xmlns:svg="http://www.w3.org/2000/svg"><sodipodi:namedview
     id="namedview7"
     pagecolor="#ffffff"
     bordercolor="#111111"
     borderopacity="1"
     inkscape:showpageshadow="0"
     inkscape:pageopacity="0"
     inkscape:pagecheckerboard="1"
     inkscape:deskcolor="#d1d1d1"
     inkscape:document-units="mm"
     showgrid="false"
     inkscape:zoom="1.5500842"
     inkscape:cx="-88.382296"
     inkscape:cy="105.8007"
     inkscape:window-width="1858"
     inkscape:window-height="1040"
     inkscape:window-x="55"
     inkscape:window-y="33"
     inkscape:window-maximized="1"
     inkscape:current-layer="layer1" /><defs
     id="defs2" /><g
     inkscape:label="Layer 1"
     inkscape:groupmode="layer"
     id="layer1"><path
       style="fill:#ba68c8;fill-opacity:1;stroke-width:0.0419648"
       d="M 9.35865,15.86696 C 7.83718,15.682065 6.62956,15.12034 5.64379,14.138992 4.69447,13.193943 4.12831,12.083692 3.91718,10.753097 3.83558,10.23907 3.86118,9.1520529 3.96608,8.6743089 c 0.24675,-1.123994 0.76917,-2.111847 1.54769,-2.926564 0.9898,-1.035815 2.13364,-1.620235 3.60041,-1.839549 0.23261,-0.03478 0.42747,-0.05776 0.433,-0.05105 0.006,0.0067 -0.0145,0.182146 -0.0445,0.389872 -0.0743,0.514647 -0.0732,1.319668 0.002,1.75371 0.34597,1.983956 1.82057,3.6011891 3.75622,4.1195631 0.77184,0.206702 1.37778,0.226165 2.42961,0.07804 l 0.18449,-0.02598 -0.0297,0.268629 c -0.16046,1.452887 -0.81764,2.784423 -1.86724,3.783247 -1.07517,1.023168 -2.46004,1.60108 -3.94168,1.644879 -0.29225,0.0086 -0.59746,0.0077 -0.67824,-0.0021 z M 0.5428,7.5864509 c -0.0675,-0.06747 -0.12267,-0.160387 -0.12267,-0.20649 0,-0.05894 -0.0372,-0.092 -0.12538,-0.111362 -0.17889,-0.03929 -0.29427,-0.204629 -0.29427,-0.421691 0,-0.148868 0.022,-0.197967 0.12911,-0.288094 0.071,-0.05975 0.15574,-0.108643 0.18828,-0.108643 0.0325,0 0.0851,-0.06137 0.11689,-0.136386 0.0816,-0.192764 0.2079,-0.29074 0.3812,-0.295652 0.188,-0.0053 0.36723,0.122094 0.42067,0.299069 0.0264,0.0876 0.0669,0.132969 0.11863,0.132969 0.0432,0 0.13368,0.0552 0.20115,0.122667 0.23042,0.230422 0.12741,0.619213 -0.18482,0.697578 -0.0652,0.01635 -0.11486,0.06607 -0.13122,0.131216 -0.0784,0.312234 -0.46715,0.415241 -0.69757,0.184819 z M 4.06944,3.3694479 C 3.91806,3.2841479 3.86413,3.1534749 3.85139,2.8411929 l -0.0111,-0.272772 -0.27278,-0.01112 c -0.32166,-0.01312 -0.446,-0.06778 -0.53185,-0.233787 -0.088,-0.170214 -0.0409,-0.375222 0.11685,-0.507926 0.1101,-0.09264 0.16772,-0.107442 0.41822,-0.107442 h 0.29054 v -0.290534 c 0,-0.251339 0.0147,-0.307953 0.10864,-0.41964905 0.0907,-0.107782 0.13884,-0.129114 0.29141,-0.129114 0.13226,0 0.21503,0.02775 0.29948,0.10038 0.10471,0.09007 0.11833,0.13272305 0.1326,0.41528305 l 0.0159,0.314902 0.3149,0.0159 c 0.28256,0.01427 0.32521,0.02789 0.41528,0.132601 0.14771,0.171718 0.13826,0.416318 -0.0223,0.57686 -0.11247,0.112468 -0.14736,0.122667 -0.41965,0.122667 H 4.70055 v 0.293092 c 0,0.260726 -0.0127,0.307228 -0.11541,0.421106 -0.13655,0.151471 -0.35659,0.197473 -0.5157,0.107811 z"
       id="path611" /></g></svg>
