<?xml version="1.0" encoding="UTF-8" standalone="no"?>
<!-- Created with Inkscape (http://www.inkscape.org/) -->

<svg
   width="72"
   height="72"
   viewBox="0 0 19.050001 19.05"
   version="1.1"
   id="svg5"
   xml:space="preserve"
   inkscape:version="1.2.2 (b0a8486541, 2022-12-01)"
   sodipodi:docname="02n.svg"
   inkscape:export-filename="01d.png"
   inkscape:export-xdpi="96"
   inkscape:export-ydpi="96"
   xmlns:inkscape="http://www.inkscape.org/namespaces/inkscape"
   xmlns:sodipodi="http://sodipodi.sourceforge.net/DTD/sodipodi-0.dtd"
   xmlns="http://www.w3.org/2000/svg"
   xmlns:svg="http://www.w3.org/2000/svg"><sodipodi:namedview
     id="namedview7"
     pagecolor="#ffffff"
     bordercolor="#111111"
     borderopacity="1"
     inkscape:showpageshadow="0"
     inkscape:pageopacity="0"
     inkscape:pagecheckerboard="1"
     inkscape:deskcolor="#d1d1d1"
     inkscape:document-units="mm"
     showgrid="false"
     inkscape:zoom="4.8790368"
     inkscape:cx="30.436335"
     inkscape:cy="29.923939"
     inkscape:window-width="1858"
     inkscape:window-height="1040"
     inkscape:window-x="55"
     inkscape:window-y="33"
     inkscape:window-maximized="1"
     inkscape:current-layer="layer1" /><defs
     id="defs2" /><g
     inkscape:label="Layer 1"
     inkscape:groupmode="layer"
     id="layer1"><g
       id="g1013"
       transform="matrix(1.2,0,0,1.2,0,0.46057913)"><path
         id="path611"
         style="fill:#ba68c8;fill-opacity:1;stroke-width:0.0293285"
         d="m 11.445166,3.9765014 c -0.03088,2.648e-4 -0.15281,0.015239 -0.295056,0.036507 C 10.125011,4.1662829 9.3253866,4.5748392 8.6336335,5.2987516 8.2576968,5.6921669 7.9675013,6.143087 7.7669695,6.6435061 8.518866,7.1058604 9.0674116,7.8863583 9.1107238,8.83142 10.604914,8.3789741 12.057046,8.807577 12.057281,10.835299 c 0.746775,0.01589 1.402071,0.384365 1.834348,0.89967 0.233114,-0.14709 0.453478,-0.317825 0.657624,-0.512097 C 15.2828,10.524812 15.741857,9.5942687 15.854,8.5788722 l 0.021,-0.1880356 -0.129024,0.018003 C 15.010871,8.5123608 14.587579,8.4987906 14.048154,8.3543296 12.695363,7.9920478 11.66445,6.8618357 11.422657,5.4752849 11.370147,5.1719409 11.369737,4.6092305 11.42169,4.249553 11.44266,4.1043771 11.45686,3.9821854 11.4527,3.9775016 c -4.83e-4,-5.863e-4 -0.0031,-0.00104 -0.0075,-9.968e-4 z" /><path
         style="fill:#ba68c8;fill-opacity:1;stroke:none;stroke-width:0.117857"
         d="m 2.8236191,10.168623 c -3.42593738,0.147476 -3.9580635,5.027325 -0.3535721,5.292975 2.3226009,0 4.6546602,0.01061 6.9535852,0.01061 1.0087418,0 2.1667298,0.108843 3.3000078,-0.194819 2.308236,-1.041506 0.925651,-3.885404 -1.178575,-3.93019 C 11.54483,9.3194713 10.092823,8.891174 8.5986312,9.3436203 8.5042274,7.2837564 6.0116622,6.002717 4.2379082,7.1036936 3.1204902,7.7972844 2.8244325,8.941279 2.8236191,10.168623 Z"
         id="path1565"
         sodipodi:nodetypes="scsccccss" /></g></g></svg>
