<?xml version="1.0" encoding="UTF-8" standalone="no"?>
<!-- Created with Inkscape (http://www.inkscape.org/) -->

<svg
   width="72"
   height="72"
   viewBox="0 0 19.050001 19.05"
   version="1.1"
   id="svg5"
   xml:space="preserve"
   inkscape:version="1.2.2 (b0a8486541, 2022-12-01)"
   sodipodi:docname="09d.svg"
   inkscape:export-filename="01d.png"
   inkscape:export-xdpi="96"
   inkscape:export-ydpi="96"
   xmlns:inkscape="http://www.inkscape.org/namespaces/inkscape"
   xmlns:sodipodi="http://sodipodi.sourceforge.net/DTD/sodipodi-0.dtd"
   xmlns="http://www.w3.org/2000/svg"
   xmlns:svg="http://www.w3.org/2000/svg"><sodipodi:namedview
     id="namedview7"
     pagecolor="#ffffff"
     bordercolor="#111111"
     borderopacity="1"
     inkscape:showpageshadow="0"
     inkscape:pageopacity="0"
     inkscape:pagecheckerboard="1"
     inkscape:deskcolor="#d1d1d1"
     inkscape:document-units="mm"
     showgrid="false"
     inkscape:zoom="4.8790368"
     inkscape:cx="30.436335"
     inkscape:cy="29.923939"
     inkscape:window-width="1858"
     inkscape:window-height="1040"
     inkscape:window-x="55"
     inkscape:window-y="33"
     inkscape:window-maximized="1"
     inkscape:current-layer="layer1" /><defs
     id="defs2" /><g
     inkscape:label="Layer 1"
     inkscape:groupmode="layer"
     id="layer1"><g
       id="g252"
       transform="scale(1.2)"><g
         id="g1319"
         transform="matrix(0.96774745,0,0,0.96774745,0,0.00863244)"><path
           id="path2690"
           style="fill:#ba68c8;fill-opacity:1;stroke:none;stroke-width:0.0983165"
           d="M 9.5084636,0.26768392 C 9.1042216,0.2698045 8.6970561,0.37500587 8.3271403,0.60461423 7.7466235,0.96494583 7.4315968,1.4711497 7.2765585,2.0489705 c 0.8676673,0.4148113 1.5315984,1.2425908 1.578715,2.2706624 1.4468745,-0.4381184 2.8533445,-0.023578 2.8535725,1.9399333 0.935102,0.019903 1.722289,0.6110924 2.085144,1.342037 0.526032,-0.00125 1.072206,-0.033703 1.611788,-0.1782837 C 17.331306,6.5544935 16.177717,4.1818103 14.422376,4.1444498 14.422179,2.4529258 13.211098,2.0958037 11.964645,2.473234 11.905582,1.184482 10.72119,0.26132216 9.5084636,0.26768392 Z" /><path
           style="fill:#ba68c8;fill-opacity:1;stroke:none;stroke-width:0.114125"
           d="m 2.7342053,5.6476688 c -3.31745026,0.1428049 -3.8327259,4.8681272 -0.3423758,5.1253652 2.2490522,0 4.5072635,0.01027 6.7333897,0.01027 0.9767978,0 2.0981168,0.105396 3.1955078,-0.188649 C 14.55587,9.5861298 13.217066,6.8322877 11.179474,6.7889199 11.179246,4.8254062 9.7732193,4.4106715 8.3263429,4.8487904 8.2349287,2.8541551 5.821294,1.6136817 4.1037088,2.6797943 3.0216754,3.3514215 2.7349929,4.4591899 2.7342053,5.6476675 Z"
           id="path2692"
           sodipodi:nodetypes="scsccccss" /></g><path
         style="fill:#ba68c8;fill-opacity:1;stroke-width:0.158241"
         d="m 7.7018813,15.716132 c -0.1681678,-0.2721 0.2698848,-1.292038 0.5549165,-1.292038 0.4146311,0 0.5020324,0.255953 0.2982512,0.873419 -0.1735936,0.525994 -0.6441218,0.756864 -0.8531677,0.418619 z M 5.1559085,15.376811 c -0.1358984,-0.219889 0.2032457,-0.794476 0.4689305,-0.794476 0.3076974,0 0.4386822,0.259829 0.319804,0.634381 -0.1036739,0.326647 -0.6209134,0.431635 -0.7887345,0.160095 z M 3.0819458,14.046963 c -0.1241492,-0.323527 0.356642,-1.36352 0.6303587,-1.36352 0.3850472,0 0.4653533,0.311388 0.249209,0.966311 -0.2083686,0.631363 -0.7038506,0.85512 -0.8795677,0.397209 z M 5.8788366,13.80243 c -0.3481649,-0.220371 0.1182244,-1.339301 0.5864261,-1.406915 0.403793,-0.05831 0.4559482,0.253706 0.1764345,1.05552 -0.1783721,0.511679 -0.3700989,0.599993 -0.7628606,0.351395 z m 3.0356885,-1.153278 c -0.2175735,-0.26979 0.031711,-0.915156 0.3534962,-0.915156 0.3197941,0 0.4903178,0.447646 0.2909325,0.763735 -0.2129924,0.337664 -0.4494298,0.393221 -0.6444287,0.151421 z M 4.1824088,11.338039 c -0.1643153,-0.428198 0.084053,-1.028212 0.425616,-1.028212 0.4402711,0 0.5519299,0.400261 0.2431312,0.871547 -0.2934366,0.447842 -0.5352723,0.504495 -0.6687472,0.156665 z"
         id="path1679" /><path
         style="fill:#ba68c8;fill-opacity:1;stroke-width:0.158241"
         d="m 7.7018813,15.716132 c -0.1681678,-0.2721 0.2698848,-1.292038 0.5549165,-1.292038 0.4146311,0 0.5020324,0.255953 0.2982512,0.873419 -0.1735936,0.525994 -0.6441218,0.756864 -0.8531677,0.418619 z M 5.1559085,15.376811 c -0.1358984,-0.219889 0.2032457,-0.794476 0.4689305,-0.794476 0.3076974,0 0.4386822,0.259829 0.319804,0.634381 -0.1036739,0.326647 -0.6209134,0.431635 -0.7887345,0.160095 z M 3.0819458,14.046963 c -0.1241492,-0.323527 0.356642,-1.36352 0.6303587,-1.36352 0.3850472,0 0.4653533,0.311388 0.249209,0.966311 -0.2083686,0.631363 -0.7038506,0.85512 -0.8795677,0.397209 z M 5.8788366,13.80243 c -0.3481649,-0.220371 0.1742271,-1.598587 0.6424288,-1.6662 0.403793,-0.05831 0.3999455,0.512991 0.1204318,1.314805 -0.1783721,0.511679 -0.3700989,0.599993 -0.7628606,0.351395 z m 3.0356885,-1.153278 c -0.2175735,-0.26979 0.031711,-0.915156 0.3534962,-0.915156 0.3197941,0 0.4903178,0.447646 0.2909325,0.763735 -0.2129924,0.337664 -0.4494298,0.393221 -0.6444287,0.151421 z M 4.1824088,11.338039 c -0.1643153,-0.428198 0.084053,-1.028212 0.425616,-1.028212 0.4402711,0 0.5519299,0.400261 0.2431312,0.871547 -0.2934366,0.447842 -0.5352723,0.504495 -0.6687472,0.156665 z"
         id="path2726"
         sodipodi:nodetypes="ssssssssssssssssssssssss" /></g></g></svg>
