<?xml version="1.0" encoding="UTF-8" standalone="no"?>
<!-- Created with Inkscape (http://www.inkscape.org/) -->

<svg
   width="72"
   height="72"
   viewBox="0 0 19.050001 19.05"
   version="1.1"
   id="svg5"
   xml:space="preserve"
   inkscape:version="1.2.2 (b0a8486541, 2022-12-01)"
   sodipodi:docname="11d.svg"
   inkscape:export-filename="01d.png"
   inkscape:export-xdpi="96"
   inkscape:export-ydpi="96"
   xmlns:inkscape="http://www.inkscape.org/namespaces/inkscape"
   xmlns:sodipodi="http://sodipodi.sourceforge.net/DTD/sodipodi-0.dtd"
   xmlns="http://www.w3.org/2000/svg"
   xmlns:svg="http://www.w3.org/2000/svg"><sodipodi:namedview
     id="namedview7"
     pagecolor="#ffffff"
     bordercolor="#111111"
     borderopacity="1"
     inkscape:showpageshadow="0"
     inkscape:pageopacity="0"
     inkscape:pagecheckerboard="1"
     inkscape:deskcolor="#d1d1d1"
     inkscape:document-units="mm"
     showgrid="false"
     inkscape:zoom="3.45"
     inkscape:cx="35.217391"
     inkscape:cy="32.173913"
     inkscape:window-width="1858"
     inkscape:window-height="1040"
     inkscape:window-x="55"
     inkscape:window-y="33"
     inkscape:window-maximized="1"
     inkscape:current-layer="layer1" /><defs
     id="defs2" /><g
     inkscape:label="Layer 1"
     inkscape:groupmode="layer"
     id="layer1"><g
       id="g283"
       transform="matrix(1.2,0,0,1.2,1.6444693e-7,-1.1604988e-6)"><g
         id="g1796"
         transform="translate(0,-1.0583333)"><path
           style="fill:#ba68c8;fill-opacity:1;stroke:none;stroke-width:0.110444"
           d="m 2.6460202,7.5516238 c -3.21045402,0.1381991 -3.7091107,4.7111172 -0.3313333,4.9600592 2.1765145,0 4.3618928,0.0099 6.5162207,0.0099 0.9452936,0 2.0304474,0.101996 3.0924444,-0.182565 C 14.086406,11.36306 12.790782,8.6980357 10.818907,8.6560666 10.818687,6.7558813 9.458008,6.3545228 8.0577971,6.7785113 7.9693312,4.848208 5.6335424,3.6477431 3.9713537,4.6794708 2.9242187,5.3294363 2.6467824,6.4014764 2.6460202,7.5516225 Z"
           id="path1751"
           sodipodi:nodetypes="scsccccss" /><path
           id="path2682"
           style="fill:#ba68c8;fill-opacity:1;stroke:none;stroke-width:0.0951455"
           d="m 9.2017914,2.3450754 c -0.3912042,0.00205 -0.7852375,0.1038605 -1.1432226,0.3260635 -0.5617937,0.34871 -0.86666,0.8385874 -1.0166979,1.3977721 0.8396828,0.4014326 1.4822005,1.2025141 1.5277974,2.1974278 1.4002091,-0.423988 2.7613167,-0.022318 2.7615377,1.8778656 0.904942,0.019261 1.666741,0.5908829 2.017893,1.2982523 0.509066,-0.00121 1.037624,-0.032614 1.559803,-0.172533 C 16.772327,8.4291676 15.655944,6.1334613 13.957218,6.0973059 13.957027,4.4603379 12.785006,4.1142337 11.578755,4.4794909 11.521597,3.2323045 10.375404,2.3389188 9.2017914,2.3450754 Z" /></g><path
         style="fill:#ba68c8;fill-opacity:1;stroke-width:0.12079"
         d="m 3.5781648,15.65123 c 0.050038,-0.166086 0.2732929,-0.728046 0.496123,-1.248799 0.2228296,-0.520754 0.4051446,-0.969185 0.4051446,-0.996516 0,-0.02733 -0.2174216,-0.04969 -0.4831589,-0.04969 -0.2657374,0 -0.483159,-0.02808 -0.483159,-0.06241 0,-0.03432 0.2994086,-0.659411 0.6653526,-1.389083 l 0.665353,-1.326675 H 5.6271527 6.410485 l -0.5427619,0.846764 c -0.2985189,0.465719 -0.5427619,0.873385 -0.5427619,0.905923 0,0.03254 0.2445991,0.05916 0.5435539,0.05916 0.2989548,0 0.543554,0.03212 0.543554,0.07137 0,0.06586 -2.353942,2.899515 -2.7502651,3.310746 -0.1535163,0.159291 -0.163623,0.144694 -0.083639,-0.120789 z"
         id="path2728" /></g></g></svg>
