<?xml version="1.0" encoding="UTF-8" standalone="no"?>
<!-- Created with Inkscape (http://www.inkscape.org/) -->

<svg
   width="60"
   height="60"
   viewBox="0 0 15.875001 15.875"
   version="1.1"
   id="svg5"
   xml:space="preserve"
   inkscape:version="1.2.2 (b0a8486541, 2022-12-01)"
   sodipodi:docname="fog.svg"
   xmlns:inkscape="http://www.inkscape.org/namespaces/inkscape"
   xmlns:sodipodi="http://sodipodi.sourceforge.net/DTD/sodipodi-0.dtd"
   xmlns="http://www.w3.org/2000/svg"
   xmlns:svg="http://www.w3.org/2000/svg"><sodipodi:namedview
     id="namedview7"
     pagecolor="#ffffff"
     bordercolor="#111111"
     borderopacity="1"
     inkscape:showpageshadow="0"
     inkscape:pageopacity="0"
     inkscape:pagecheckerboard="1"
     inkscape:deskcolor="#d1d1d1"
     inkscape:document-units="mm"
     showgrid="false"
     inkscape:zoom="1.5500842"
     inkscape:cx="-45.803963"
     inkscape:cy="105.8007"
     inkscape:window-width="1858"
     inkscape:window-height="1066"
     inkscape:window-x="55"
     inkscape:window-y="7"
     inkscape:window-maximized="1"
     inkscape:current-layer="layer1" /><defs
     id="defs2" /><g
     inkscape:label="Layer 1"
     inkscape:groupmode="layer"
     id="layer1"><path
       style="fill:#ba68c8;fill-opacity:1;stroke-width:0.0456029"
       d="M 8.4263308,15.845918 C 7.3874394,15.682198 6.3551507,15.27008 5.5659545,14.703978 l -0.2502257,-0.17949 h 1.1075467 c 0.8934119,0 1.1330245,-0.01317 1.2393231,-0.06814 0.3013833,-0.155851 0.3630076,-0.469347 0.1410968,-0.717789 L 7.6706703,13.58963 5.9909756,13.5777 4.3112809,13.56577 4.7787117,14.029269 c 0.2570871,0.254924 0.4674308,0.470636 0.4674308,0.479361 0,0.0087 -1.0780302,0.01586 -2.3956224,0.01586 -2.57267711,0 -2.61331161,-0.0034 -2.77435851,-0.233345 -0.1168928,-0.166888 -0.094099,-0.381566 0.058671,-0.552588 l 0.1330354,-0.148929 2.01030581,-0.01278 c 1.1056679,-0.007 2.010305,-0.0211 2.010305,-0.03127 0,-0.01017 -0.122418,-0.189109 -0.2720408,-0.397647 -0.2469588,-0.34421 -0.6113756,-1.00729 -0.7284287,-1.32543 l -0.04614,-0.125409 h 3.6050165 3.6050172 l 0.133301,-0.133301 c 0.187711,-0.187711 0.187711,-0.457747 0,-0.645458 L 10.451903,10.785032 H 6.7098175 2.9677318 L 2.9451033,10.682425 C 2.8606233,10.299396 2.8220159,9.924087 2.8190501,9.4570777 L 2.8156216,8.9193056 1.5417094,8.9059067 0.26779729,8.8925078 0.13479189,8.7435784 c -0.1797231,-0.201241 -0.1797214,-0.4129635 4.3e-6,-0.6142012 L 0.26780589,7.9804478 1.6156586,7.9671072 2.9635121,7.9537666 3.0128664,7.7618943 C 3.1856793,7.0900497 3.5565067,6.2650395 3.9395175,5.7002982 4.0931921,5.4737078 4.4532657,5.0520725 4.7434034,4.7589703 5.6206522,3.8727594 6.5371735,3.3531387 7.7771008,3.0390175 c 0.4339028,-0.1099247 1.1522288,-0.214756 1.192895,-0.17409 0.015849,0.015844 0.00214,0.2190755 -0.030497,0.4516244 -0.124194,0.8854472 -0.055817,1.8068194 0.1921371,2.5889589 0.6382525,2.0132956 2.3708481,3.5198037 4.4326211,3.8542059 0.50318,0.081612 1.318377,0.082638 1.874149,0.00236 0.225735,-0.032607 0.41926,-0.051493 0.430056,-0.041971 0.04895,0.043175 -0.188257,1.2306643 -0.335871,1.6814123 -0.7104,2.169248 -2.486751,3.789629 -4.754583,4.337113 -0.413376,0.09979 -0.621283,0.12135 -1.2907941,0.133827 -0.4389291,0.0081 -0.9163302,-0.0038 -1.0608916,-0.02655 z M 7.8036757,8.7435866 c 0.1797831,-0.201248 0.1797831,-0.4129525 1.7e-6,-0.6142013 L 7.6706343,7.9804559 5.3217648,7.9678619 c -2.216573,-0.011884 -2.3502915,-0.00803 -2.3741184,0.068404 -0.029871,0.095812 -0.1162611,0.6840345 -0.1175597,0.8004129 -8.571e-4,0.076713 0.1264697,0.080312 2.4198204,0.068404 l 2.4207246,-0.012568 z"
       id="path547" /></g></svg>
