<?xml version="1.0" encoding="UTF-8" standalone="no"?>
<!-- Created with Inkscape (http://www.inkscape.org/) -->

<svg
   width="60"
   height="60"
   viewBox="0 0 15.875001 15.875"
   version="1.1"
   id="svg5"
   xml:space="preserve"
   inkscape:version="1.2.2 (b0a8486541, 2022-12-01)"
   sodipodi:docname="light-rain.svg"
   xmlns:inkscape="http://www.inkscape.org/namespaces/inkscape"
   xmlns:sodipodi="http://sodipodi.sourceforge.net/DTD/sodipodi-0.dtd"
   xmlns="http://www.w3.org/2000/svg"
   xmlns:svg="http://www.w3.org/2000/svg"><sodipodi:namedview
     id="namedview7"
     pagecolor="#ffffff"
     bordercolor="#111111"
     borderopacity="1"
     inkscape:showpageshadow="0"
     inkscape:pageopacity="0"
     inkscape:pagecheckerboard="1"
     inkscape:deskcolor="#d1d1d1"
     inkscape:document-units="mm"
     showgrid="false"
     inkscape:zoom="1.5500842"
     inkscape:cx="-45.803963"
     inkscape:cy="105.8007"
     inkscape:window-width="1858"
     inkscape:window-height="1066"
     inkscape:window-x="55"
     inkscape:window-y="7"
     inkscape:window-maximized="1"
     inkscape:current-layer="layer1" /><defs
     id="defs2" /><g
     inkscape:label="Layer 1"
     inkscape:groupmode="layer"
     id="layer1"><path
       style="fill:#ba68c8;fill-opacity:1;stroke-width:0.0369804"
       d="m 6.4552541,15.827593 c -0.10527,-0.05835 -0.18585,-0.192511 -0.18766,-0.312457 -0.003,-0.190493 0.15211,-0.59548 0.26389,-0.689533 0.14533,-0.122292 0.32253,-0.122464 0.46753,-4.62e-4 0.16068,0.135201 0.17137,0.237818 0.0621,0.596109 -0.0806,0.264334 -0.11398,0.324392 -0.21403,0.385398 -0.13704,0.08356 -0.26636,0.09047 -0.39181,0.02094 z m -2.18729,-1.293771 c -0.0923,-0.02983 -0.14745,-0.08111 -0.19752,-0.183636 l -0.0695,-0.142248 0.12111,-0.401858 c 0.13311,-0.441672 0.20641,-0.542734 0.41859,-0.577167 0.16951,-0.02751 0.3065,0.05645 0.3803,0.233081 0.0506,0.121226 0.0462,0.152963 -0.0769,0.547144 -0.0718,0.230149 -0.15406,0.437902 -0.1827,0.461673 -0.0958,0.07953 -0.26066,0.10593 -0.39345,0.06301 z m 5.33706,0.02239 c -0.1185,-0.01898 -0.26937,-0.214515 -0.26937,-0.349118 0,-0.06229 0.0509,-0.278182 0.1131,-0.479766 0.0976,-0.3164 0.12925,-0.376357 0.23113,-0.438481 0.14033,-0.08556 0.25157,-0.09114 0.3900199,-0.01954 0.10358,0.05357 0.1906,0.195485 0.18984,0.309602 -8.7e-4,0.128665 -0.22566,0.804727 -0.2884599,0.86753 -0.0764,0.07635 -0.25,0.128398 -0.36626,0.109777 z m -2.60339,-0.525997 c -0.1177,-0.0622 -0.1365,-0.09186 -0.15715,-0.247983 -0.019,-0.143748 2.7e-4,-0.249477 0.10169,-0.55828 0.0688,-0.209522 0.13123,-0.386326 0.13866,-0.392898 0.007,-0.0066 0.0795,-0.04536 0.16015,-0.0862 l 0.14665,-0.07425 0.15581,0.0757 c 0.14244,0.0692 0.15786,0.09059 0.17967,0.249169 0.0188,0.136965 -1.8e-4,0.250473 -0.0904,0.539371 -0.0628,0.201245 -0.12648,0.384831 -0.14141,0.407969 -0.0255,0.03958 -0.2863,0.163239 -0.33674,0.159688 -0.0128,-8.94e-4 -0.0834,-0.03343 -0.15691,-0.07229 z m -2.07543,-1.832988 c -0.1337,-0.07255 -0.22421,-0.251116 -0.1949,-0.384551 l 0.0229,-0.104218 -1.10222,-0.01738 c -0.9715,-0.01532 -1.13521,-0.02656 -1.38036,-0.09477 -0.95146,-0.264746 -1.70905,-0.919496 -2.05504,-1.7760697 C 0.0414341,9.3866013 -0.0010059,9.1572173 1.4100859e-5,8.6495203 7.1410086e-4,8.2640783 0.0175141,8.1107483 0.0843141,7.8760653 c 0.32397,-1.137894 1.22247,-1.968578 2.36701,-2.188343 0.14924,-0.02866 0.33646,-0.05211 0.41602,-0.05211 h 0.14467 v -0.237697 c 0,-0.383857 0.0699,-0.789361 0.20773,-1.204539 0.21478,-0.647108 0.52131,-1.131984 1.01863,-1.611316 1.21198,-1.168133 3.01347,-1.4456 4.5241,-0.696803 0.43449,0.215371 0.75667,0.460253 1.13476,0.86249 0.4045699,0.430406 0.6759699,0.894541 0.8910899,1.523869 0.0183,0.05354 0.0544,0.05016 0.34707,-0.03254 0.28262,-0.07985 0.4064,-0.09278 0.91833,-0.09594 0.49739,-0.0031 0.64359,0.0095 0.91737,0.07857 0.9376,0.236689 1.74398,0.79876 2.26123,1.576127 1.30009,1.95392 0.55564,4.5641447 -1.58362,5.5525447 -0.55862,0.258094 -1.1154,0.348321 -2.15596,0.349372 l -0.63494,6.42e-4 -0.0597,0.179591 c -0.0972,0.292575 -0.28482,0.415583 -0.51704,0.338943 -0.15964,-0.05268 -0.24282,-0.179202 -0.24282,-0.369311 V 11.700392 H 9.1137341 c -0.79277,0 -0.92451,0.0078 -0.92451,0.05489 0,0.101947 -0.19748,0.279637 -0.33282,0.299479 -0.17419,0.02553 -0.36351,-0.09174 -0.39397,-0.244061 l -0.0223,-0.111535 -0.94239,0.0099 -0.9424,0.0099 -0.0734,0.196883 c -0.11065,0.296707 -0.32632,0.405927 -0.55574,0.281444 z"
       id="path863" /></g></svg>
