<?xml version="1.0" encoding="UTF-8" standalone="no"?>
<!-- Created with Inkscape (http://www.inkscape.org/) -->

<svg
   width="60"
   height="60"
   viewBox="0 0 15.875001 15.875"
   version="1.1"
   id="svg5"
   xml:space="preserve"
   inkscape:version="1.2.2 (b0a8486541, 2022-12-01)"
   sodipodi:docname="thundery-rain.svg"
   xmlns:inkscape="http://www.inkscape.org/namespaces/inkscape"
   xmlns:sodipodi="http://sodipodi.sourceforge.net/DTD/sodipodi-0.dtd"
   xmlns="http://www.w3.org/2000/svg"
   xmlns:svg="http://www.w3.org/2000/svg"><sodipodi:namedview
     id="namedview7"
     pagecolor="#ffffff"
     bordercolor="#111111"
     borderopacity="1"
     inkscape:showpageshadow="0"
     inkscape:pageopacity="0"
     inkscape:pagecheckerboard="1"
     inkscape:deskcolor="#d1d1d1"
     inkscape:document-units="mm"
     showgrid="false"
     inkscape:zoom="1.5500842"
     inkscape:cx="-45.803963"
     inkscape:cy="105.8007"
     inkscape:window-width="1858"
     inkscape:window-height="1066"
     inkscape:window-x="55"
     inkscape:window-y="7"
     inkscape:window-maximized="1"
     inkscape:current-layer="layer1" /><defs
     id="defs2" /><g
     inkscape:label="Layer 1"
     inkscape:groupmode="layer"
     id="layer1"><path
       style="fill:#ba68c8;fill-opacity:1;stroke-width:0.0369878"
       d="m 5.3542388,15.848397 c 0.024471,-0.04641 0.4368866,-0.703869 0.9164777,-1.46102 0.4795921,-0.757151 0.8798658,-1.397154 0.8894975,-1.422229 0.013534,-0.03523 -0.1933826,-0.04784 -0.9100586,-0.05548 l -0.9275709,-0.0099 0.5724763,-0.730778 c 0.314862,-0.401927 0.5724763,-0.738187 0.5724763,-0.747244 0,-0.0091 -0.9112886,-0.02174 -2.0250858,-0.02818 -2.0112712,-0.01164 -2.0268515,-0.01231 -2.2840004,-0.0985 C 1.0118543,10.910743 0.21085167,9.9922207 0.03581966,8.8610107 -0.17731921,7.4835272 0.57737369,6.1320709 1.8572869,5.5992417 2.1757043,5.4666845 2.5831421,5.3727434 2.8396481,5.3727434 H 3.0166729 L 3.0383072,4.9566297 C 3.160481,2.6068692 5.3129579,0.871172 7.6372723,1.2481529 c 1.4264364,0.231354 2.5866737,1.1837812 3.0870297,2.5341121 0.06669,0.1799563 0.119915,0.2725278 0.151531,0.2635158 0.581972,-0.1658983 0.602748,-0.1687423 1.232351,-0.1686978 0.759743,3.69e-5 1.041393,0.062014 1.664454,0.3661492 0.992001,0.4842309 1.71678,1.3677866 2.003642,2.4425804 0.08681,0.3252686 0.09872,0.4390235 0.09872,0.9431898 0,0.5041663 -0.01191,0.617922 -0.09872,0.9431906 -0.354815,1.3293927 -1.369928,2.350055 -2.712752,2.727581 -0.281332,0.0791 -0.352642,0.08174 -2.508834,0.09289 L 8.3354229,11.404151 9.2783416,10.459769 10.22126,9.5153862 H 9.0863287 7.9513989 L 7.2282986,10.449329 c -0.3977049,0.51367 -0.723252,0.946428 -0.7234372,0.961685 -1.817e-4,0.01526 0.4029806,0.02774 0.8959244,0.02774 h 0.8962611 l -0.3678411,0.369226 -0.3678412,0.369227 0.9379586,0.0099 0.9379584,0.0099 -1.8824921,1.700646 c -1.0353712,0.935354 -1.9640667,1.775904 -2.0637687,1.867886 -0.1167163,0.10768 -0.1654303,0.13719 -0.1367829,0.08286 z m 5.0470702,-0.706225 c -0.15883,-0.09945 -0.22031,-0.288172 -0.148082,-0.454561 0.07608,-0.175262 1.603624,-1.687019 1.744339,-1.726311 0.137515,-0.0384 0.317885,0.0069 0.403418,0.101492 0.03567,0.03941 0.07411,0.140631 0.08541,0.224925 l 0.02055,0.153261 -0.865406,0.86764 c -0.951991,0.954447 -0.997892,0.985297 -1.240238,0.833554 z m -8.9890181,-0.32721 c -0.044212,-0.0081 -0.12327,-0.0576 -0.1756921,-0.110025 -0.074571,-0.07457 -0.095314,-0.132036 -0.095314,-0.26408 v -0.168766 l 0.8200131,-0.822976 c 0.4510064,-0.452637 0.8679815,-0.842845 0.9266118,-0.867131 0.082226,-0.03406 0.1399423,-0.03417 0.25242,-4.61e-4 0.1651672,0.04948 0.2572149,0.185313 0.2572149,0.379553 0,0.107897 -0.089631,0.209839 -0.8599681,0.978094 -0.8502797,0.84798 -0.9315746,0.911251 -1.1252854,0.875797 z"
       id="path942" /></g></svg>
