<?xml version="1.0" encoding="UTF-8" standalone="no"?>
<!-- Created with Inkscape (http://www.inkscape.org/) -->

<svg
   width="60"
   height="60"
   viewBox="0 0 15.875001 15.875"
   version="1.1"
   id="svg5"
   xml:space="preserve"
   inkscape:version="1.2.2 (b0a8486541, 2022-12-01)"
   sodipodi:docname="thundery-showers.svg"
   xmlns:inkscape="http://www.inkscape.org/namespaces/inkscape"
   xmlns:sodipodi="http://sodipodi.sourceforge.net/DTD/sodipodi-0.dtd"
   xmlns="http://www.w3.org/2000/svg"
   xmlns:svg="http://www.w3.org/2000/svg"><sodipodi:namedview
     id="namedview7"
     pagecolor="#ffffff"
     bordercolor="#111111"
     borderopacity="1"
     inkscape:showpageshadow="0"
     inkscape:pageopacity="0"
     inkscape:pagecheckerboard="1"
     inkscape:deskcolor="#d1d1d1"
     inkscape:document-units="mm"
     showgrid="false"
     inkscape:zoom="1.5500842"
     inkscape:cx="-45.803963"
     inkscape:cy="105.8007"
     inkscape:window-width="1858"
     inkscape:window-height="1066"
     inkscape:window-x="55"
     inkscape:window-y="7"
     inkscape:window-maximized="1"
     inkscape:current-layer="layer1" /><defs
     id="defs2" /><g
     inkscape:label="Layer 1"
     inkscape:groupmode="layer"
     id="layer1"><path
       style="fill:#ba68c8;fill-opacity:1;stroke-width:0.0369649"
       d="m 6.6474305,15.630612 c 0.10166,-0.159099 0.524,-0.821567 0.93854,-1.472149 l 0.7537,-1.182878 -0.75272,-0.01 c -0.41399,-0.0055 -0.75271,-0.0198 -0.75271,-0.03179 0,-0.01199 0.32643,-0.439981 0.72541,-0.951096 l 0.72541,-0.929302 -0.79557,-0.01848 -0.79557,-0.01848 0.81489,-0.739298 0.81489,-0.7392987 -0.93795,-0.00989 -0.93795,-0.00989 1.31121,-1.3116022 1.31121,-1.3116023 h -0.94653 -0.94654 l -1.3154,1.6911451 -1.3154,1.6911451 0.73733,0.01001 c 0.40553,0.0055 0.73733,0.0193 0.73733,0.03065 0,0.01135 -0.0998,0.174712 -0.22179,0.363016 -0.12199,0.188305 -0.22179,0.352872 -0.22179,0.365706 0,0.01283 0.2326,0.02795 0.51689,0.03359 l 0.5169,0.01026 -1.11184,0.998053 c -1.16757,1.048093 -1.36277,1.216222 -1.30806,1.126684 0.0184,-0.03009 0.32311,-0.511736 0.67716,-1.070332 0.35406,-0.558597 0.65187,-1.036831 0.66182,-1.062741 0.0145,-0.03767 -0.27338,-0.04724 -1.43675,-0.04775 -1.61017,-7.13e-4 -1.74406,-0.01446 -2.24328,-0.23029 -1.31132,-0.566939 -2.05266,-1.9320053 -1.80177,-3.3177018 0.1716,-0.9478014 0.79055,-1.7596068 1.66322,-2.181466 0.33733,-0.1630673 0.83463,-0.294539 1.11557,-0.2949246 l 0.18857,-2.654e-4 0.0216,-0.4158553 c 0.14812,-2.8488427 3.177,-4.61080794 5.7374,-3.3375784 0.98966,0.4921311 1.6271595,1.2447034 2.0248095,2.3902832 0.0186,0.053732 0.053,0.050141 0.32875,-0.034376 0.27882,-0.085457 0.36904,-0.094533 0.9548,-0.096056 0.56225,-0.00146 0.688,0.00943 0.96109,0.083207 1.3632,0.3682971 2.39712,1.4248317 2.74369,2.8036946 0.12254,0.4875455 0.11466,1.2956381 -0.0175,1.790058 -0.29771,1.1141382 -1.01745,1.9866907 -2.04239,2.4760157 -0.69793,0.333208 -0.75439,0.341582 -2.40272,0.356374 L 9.8837605,11.03835 10.6412,10.278858 11.39865,9.5193657 H 10.43408 9.4695105 l -0.56331,0.7266903 c -0.30982,0.39968 -0.57187,0.748999 -0.58233,0.776264 -0.0155,0.04048 0.12236,0.04957 0.75149,0.04957 h 0.77051 l -0.5529,0.553822 -0.55289,0.553822 0.93774,0.0099 0.9377395,0.0099 -2.0085895,1.811281 c -1.10473,0.996204 -2.03916,1.833331 -2.07652,1.860281 -0.0374,0.02695 0.0152,-0.08117 0.1169,-0.240271 z"
       id="path977" /></g></svg>
