<?xml version="1.0" encoding="UTF-8" standalone="no"?>
<!-- Created with Inkscape (http://www.inkscape.org/) -->

<svg
   width="60"
   height="60"
   viewBox="0 0 15.875001 15.875"
   version="1.1"
   id="svg5"
   xml:space="preserve"
   inkscape:version="1.2.2 (b0a8486541, 2022-12-01)"
   sodipodi:docname="unknown.svg"
   xmlns:inkscape="http://www.inkscape.org/namespaces/inkscape"
   xmlns:sodipodi="http://sodipodi.sourceforge.net/DTD/sodipodi-0.dtd"
   xmlns="http://www.w3.org/2000/svg"
   xmlns:svg="http://www.w3.org/2000/svg"><sodipodi:namedview
     id="namedview7"
     pagecolor="#ffffff"
     bordercolor="#111111"
     borderopacity="1"
     inkscape:showpageshadow="0"
     inkscape:pageopacity="0"
     inkscape:pagecheckerboard="1"
     inkscape:deskcolor="#d1d1d1"
     inkscape:document-units="mm"
     showgrid="false"
     inkscape:zoom="1.5500842"
     inkscape:cx="-45.803963"
     inkscape:cy="105.8007"
     inkscape:window-width="1858"
     inkscape:window-height="1066"
     inkscape:window-x="55"
     inkscape:window-y="7"
     inkscape:window-maximized="1"
     inkscape:current-layer="layer1" /><defs
     id="defs2" /><g
     inkscape:label="Layer 1"
     inkscape:groupmode="layer"
     id="layer1"><path
       style="fill:#ba68c8;fill-opacity:1;stroke-width:0.158009"
       d="M 7.975388,15.615289 C 5.892204,14.886449 3.628148,12.264975 2.441963,9.2083226 1.804845,7.5665486 1.436568,5.5989916 1.546346,4.4234036 1.810759,1.5918676 3.650405,-0.38072736 5.613651,0.06215964 c 1.154074,0.260346 1.736995,0.889893 2.914577,3.14770496 1.263584,2.422708 3.068536,3.719961 5.450661,3.917493 1.358456,0.112647 1.896111,0.373732 1.896111,0.92075 0,0.68826 -0.194972,0.908132 -1.208555,1.362896 -1.072233,0.481079 -1.182447,0.6840284 -0.766561,1.4115474 0.565803,0.989769 0.09956,1.537779 -1.49632,1.758746 -1.740738,0.241023 -1.801847,0.292883 -1.674232,1.42085 0.100929,0.892097 0.0837,0.958623 -0.364217,1.406543 C 9.8172,15.956603 9.122583,16.016655 7.975388,15.615289 Z M 4.267163,6.2289806 c 0.424138,-0.820195 0.210941,-2.0148 -0.431121,-2.415691 -0.659001,-0.411468 -1.28511,1.077024 -0.919286,2.185483 0.313667,0.950419 0.924154,1.054491 1.350407,0.230208 z m 2.917328,-0.620736 c 0.647374,-0.647376 0.256186,-2.21213 -0.553033,-2.21213 -0.716262,0 -1.116008,1.131688 -0.687387,1.946001 0.34737,0.659949 0.758411,0.748137 1.24042,0.266129 z"
       id="path1150" /></g></svg>
